<?xml version="1.0" encoding="UTF-8"?>
<svg version="1.1" xmlns="http://www.w3.org/2000/svg" width="800" height="600">
<path d="M0 0 C0.77053176 0.7218108 1.54106352 1.4436216 2.33494473 2.18730545 C3.20527403 2.99954323 4.07560333 3.81178101 4.97230625 4.64863205 C9.46027291 8.96579748 13.89976097 13.32610672 18.30209255 17.73057938 C19.32312212 18.74860784 20.34435319 19.76643423 21.36576748 20.78407669 C24.10735983 23.51693146 26.84579348 26.25292924 29.58334136 28.98983479 C31.29715534 30.70293354 33.01168124 32.41531649 34.72645664 34.12745285 C40.71707529 40.10885911 46.70514562 46.09280265 52.69076443 52.07921219 C58.25991269 57.64896337 63.83464042 63.213087 69.4119553 68.7746594 C74.21573555 73.56536534 79.01565383 78.3599175 83.8125816 83.15748477 C86.67129194 86.01644969 89.53152346 88.8738504 92.39565754 91.72738266 C95.08335605 94.40539957 97.7662107 97.08817608 100.44543171 99.77467346 C101.42770394 100.75799074 102.41168 101.73960944 103.39749432 102.71937561 C104.7449144 104.05906338 106.08555165 105.40556276 107.42585659 106.75236893 C108.17703479 107.50300236 108.92821299 108.25363579 109.70215416 109.02701569 C113.78887962 113.63126029 115.80665176 118.01746045 115.66757107 124.24132156 C113.44807544 134.07051647 105.71567577 140.39493008 98.57246113 146.98948765 C88.66670028 156.13821605 79.16327518 165.66864693 69.6768446 175.24857903 C66.77980701 178.17406056 63.87683676 181.09361009 60.97277737 184.01211929 C52.72985586 192.29725807 44.49006124 200.58544763 36.26620388 208.88951492 C31.69335301 213.50687013 27.11340483 218.11705731 22.52530968 222.71926659 C20.10983544 225.14278555 17.69817616 227.5698439 15.29534435 230.00590324 C12.6275902 232.70730978 9.94773928 235.39613342 7.26473904 238.08238602 C6.47923168 238.88384552 5.69372433 239.68530502 4.88441372 240.51105118 C0.28724187 245.08283475 -3.1637276 247.86888273 -9.82461643 248.46397781 C-14.43162496 248.15432642 -17.53144819 247.52622147 -20.97160435 244.34796524 C-21.66114767 243.71312525 -22.35069099 243.07828526 -23.06112957 242.42420769 C-27.50145056 238.15673188 -31.88063886 233.83183696 -36.23062229 229.47252274 C-37.30385174 228.40065097 -38.37729322 227.32899148 -39.45092869 226.2575264 C-42.34325558 223.36972685 -45.23244869 220.47881153 -48.12091994 217.58715606 C-51.14984544 214.55568648 -54.18122391 211.52667135 -57.21220493 208.49725723 C-62.29354753 203.4177287 -67.37278926 198.3361066 -72.45083714 193.25328445 C-78.32486655 187.37379629 -84.20251343 181.49794292 -90.08201784 175.62393016 C-95.13622207 170.57425788 -100.18848264 165.52264716 -105.23911101 160.46939832 C-108.2533278 157.45362147 -111.26821879 154.43852697 -114.28486538 151.42518044 C-117.11480734 148.59811896 -119.94230747 145.76863811 -122.76791096 142.9372406 C-123.80672358 141.89710209 -124.84639485 140.85782034 -125.88696957 139.81944466 C-127.30293354 138.40619838 -128.71553749 136.98958797 -130.1279459 135.57278824 C-131.31668261 134.38348599 -131.31668261 134.38348599 -132.5294342 133.17015743 C-135.69130215 129.78760494 -135.60886329 127.1749672 -135.76992893 122.61632156 C-135.83051487 121.42780594 -135.89110081 120.23929031 -135.95352268 119.01475906 C-134.64733949 111.07908004 -127.60987001 105.22296548 -122.08950901 99.72374344 C-121.39119465 99.02031815 -120.69288029 98.31689285 -119.97340488 97.59215164 C-117.68802016 95.29298347 -115.39540262 93.00120013 -113.10196018 90.71007156 C-111.50324521 89.10746659 -109.90475315 87.50463923 -108.30647373 85.90159988 C-104.96866332 82.55635384 -101.62703768 79.2149759 -98.28286839 75.87608719 C-93.99018531 71.58922865 -89.70904424 67.29104189 -85.43085289 62.98972702 C-82.1393371 59.68352053 -78.84096474 56.38422288 -75.54053402 53.08691788 C-73.95808708 51.50395647 -72.378012 49.91862037 -70.80033398 48.33090591 C-68.60300857 46.12130946 -66.39644117 43.92138203 -64.18716526 41.72374344 C-63.20760365 40.73271622 -63.20760365 40.73271622 -62.20825291 39.72166824 C-61.60698078 39.12741043 -61.00570866 38.53315262 -60.38621616 37.92088699 C-59.8658217 37.40032478 -59.34542723 36.87976257 -58.80926323 36.34342575 C-57.33242893 35.24132156 -57.33242893 35.24132156 -54.33242893 35.24132156 C-52.87515354 36.64854813 -52.87515354 36.64854813 -51.29727268 38.63194656 C-48.47814298 42.00511202 -45.51908546 45.00950997 -42.27383518 47.97569656 C-41.39405003 48.79811844 -40.51426487 49.62054031 -39.60781956 50.46788406 C-37.79222453 52.15668808 -35.95586107 53.82342362 -34.10000706 55.46788406 C-27.60343043 61.64227665 -27.60343043 61.64227665 -26.79751682 66.39757156 C-26.84024143 69.60069656 -26.84024143 69.60069656 -27.16104221 72.53722 C-27.43144229 76.80353231 -25.85046612 79.88123979 -23.33242893 83.24132156 C-21.05052651 85.36023096 -19.09896355 86.85805426 -16.33242893 88.24132156 C-16.21665675 97.4466536 -16.12777616 106.65173566 -16.07336807 115.85763645 C-16.04725672 120.13219576 -16.01183172 124.40625759 -15.95523167 128.68053055 C-15.90096503 132.80432596 -15.87101999 136.92764248 -15.85804272 141.05176735 C-15.84879304 142.62632858 -15.83073035 144.20086315 -15.80377865 145.77522087 C-15.76755609 147.97844886 -15.76248024 150.17969017 -15.76480198 152.38316727 C-15.75369892 153.63781281 -15.74259586 154.89245834 -15.73115635 156.18512344 C-16.33242893 159.24132156 -16.33242893 159.24132156 -18.74290562 161.16995621 C-21.33242893 162.24132156 -21.33242893 162.24132156 -23.33242893 162.24132156 C-26.33148052 167.81098879 -27.99180069 172.8673946 -27.33242893 179.24132156 C-25.51267115 184.48419129 -23.13227925 188.26998565 -18.33242893 191.24132156 C-13.26416525 193.66026559 -8.67211277 193.75663725 -3.33242893 192.24132156 C1.55849762 189.86378782 4.77072204 186.99077285 6.73007107 181.86632156 C8.25298 175.98235525 7.84905179 171.43550005 4.91757107 165.99132156 C2.82827779 163.16657434 2.82827779 163.16657434 0.06242275 161.49370193 C-2.33242893 159.24132156 -2.33242893 159.24132156 -2.93370152 156.14079666 C-2.91704693 154.31545395 -2.91704693 154.31545395 -2.90005589 152.45323563 C-2.90115108 151.44286491 -2.90115108 151.44286491 -2.90226841 150.41208267 C-2.89879387 148.19287531 -2.85994579 145.97578562 -2.82071018 143.75694656 C-2.81138142 142.21567812 -2.8042656 140.67439482 -2.79927158 139.13310623 C-2.7802063 135.0819472 -2.73111098 131.03168852 -2.67575169 126.98088455 C-2.62454821 122.84516454 -2.60175529 118.70929863 -2.57656956 114.57335281 C-2.52299053 106.46226315 -2.43768493 98.35190444 -2.33242893 90.24132156 C3.28210105 92.88354646 7.38745803 97.28425288 11.79598904 101.55968094 C12.87190365 102.59250713 13.96016206 103.6126351 15.06063747 104.61925125 C24.23176651 113.01671255 24.23176651 113.01671255 25.30941677 118.51768875 C25.26522732 121.71788406 25.26522732 121.71788406 24.89828396 124.60313797 C24.52666962 128.85251849 26.18248892 131.8901033 28.66757107 135.24132156 C32.46327839 139.03702888 36.38261682 141.18814784 41.83944607 141.27647781 C47.10260482 140.91441488 50.5783397 139.75996251 54.66757107 136.24132156 C58.27765112 131.94825339 59.91257473 127.85598878 59.66757107 122.24132156 C58.83556153 117.45726671 57.50100592 113.56187803 53.79257107 110.30382156 C49.08161148 107.19458824 46.31063123 105.99149087 40.74178982 106.92491531 C34.76390513 107.02827642 31.85261032 104.55944993 27.68710232 100.65147781 C25.85882763 98.86351734 24.06962767 97.04810278 22.30209255 95.2000618 C20.47995365 93.30369936 18.61009361 91.46678007 16.72811794 89.62999344 C15.54456681 88.4319869 14.36411381 87.23091 13.18710232 86.02647781 C12.63101788 85.48233734 12.07493343 84.93819687 11.50199795 84.37756729 C8.45193632 81.11719644 7.34063208 79.01181705 7.3504324 74.48424149 C7.45506443 73.06985447 7.56063605 71.65553633 7.66757107 70.24132156 C6.87532886 65.48786832 5.46945328 61.53530825 1.79257107 58.30382156 C-2.92514411 55.19012955 -5.65667686 53.98779974 -11.22305393 54.97569656 C-17.37218498 55.0871986 -20.3452642 52.31272988 -24.56680393 48.25694656 C-26.4696355 46.36509023 -28.33569166 44.44704109 -30.18008518 42.4981575 C-32.09121287 40.48205515 -34.04249932 38.51271329 -36.00430393 36.54600906 C-37.23602564 35.28547983 -38.46528591 34.02253965 -39.69180393 32.75694656 C-40.27492344 32.16512589 -40.85804295 31.57330521 -41.45883274 30.96355057 C-43.05020237 29.26573563 -43.05020237 29.26573563 -45.33242893 26.24132156 C-44.85996091 22.14437635 -42.72193248 20.2573147 -39.85196018 17.39757156 C-38.93479221 16.48104813 -38.01762424 15.56452469 -37.07266331 14.62022781 C-36.59144016 14.14730301 -36.11021702 13.6743782 -35.61441135 13.18712234 C-34.15864897 11.75482049 -32.71652682 10.30981136 -31.27578831 8.86241531 C-22.52312038 0.17693465 -12.09053649 -9.11640459 0 0 Z " fill="#DE4C35" transform="translate(235.33242893218994,178.7586784362793)"/>
<path d="M0 0 C1.78083984 0.00773438 1.78083984 0.00773438 3.59765625 0.015625 C12.25993549 0.09375153 12.25993549 0.09375153 15.35514832 0.74723816 C18.00959715 1.25182433 20.45833244 1.40748944 23.1574707 1.45532227 C24.65846062 1.4852401 24.65846062 1.4852401 26.18977356 1.51576233 C27.2576561 1.53247482 28.32553864 1.54918732 29.42578125 1.56640625 C30.52850876 1.58718735 31.63123627 1.60796844 32.76737976 1.62937927 C36.28235778 1.69464932 39.79740912 1.75365495 43.3125 1.8125 C45.69857523 1.85570665 48.08464309 1.89932163 50.47070312 1.94335938 C56.31372808 2.05107427 62.15681044 2.15031582 68 2.25 C68 9.51 68 16.77 68 24.25 C61.4 24.91 54.8 25.57 48 26.25 C48.78375 27.69375 49.5675 29.1375 50.375 30.625 C55.87262415 41.76081255 56.21712629 53.15896425 52.375 65 C47.48388218 76.97540591 38.72928873 83.43019669 27.125 88.5625 C13.19661245 93.69749098 -1.51191735 92.50983327 -16 91.25 C-17.98 94.55 -19.96 97.85 -22 101.25 C-20.08058594 101.22292969 -18.16117187 101.19585937 -16.18359375 101.16796875 C-7.93109214 101.17108173 0.2440973 101.70877519 8.4675293 102.36694336 C10.93014265 102.56191749 13.39357325 102.74132531 15.85742188 102.91992188 C46.77319495 105.27510007 46.77319495 105.27510007 57.875 114.6875 C65.85028507 124.30475553 66.86881202 133.01767844 66 145.25 C64.35856023 155.16760665 59.04934586 163.31237281 51.3046875 169.625 C29.61590769 184.9174278 -2.29176925 185.03054614 -27.625 181.0625 C-39.5865013 178.94605657 -49.88581973 174.90728291 -57.640625 165.1953125 C-61.62568657 159.49255198 -61.72054494 152.95380417 -61 146.25 C-59.1706324 138.81203235 -55.33878497 133.61877815 -50 128.25 C-50.40992188 127.79109375 -50.81984375 127.3321875 -51.2421875 126.859375 C-51.78101563 126.24578125 -52.31984375 125.6321875 -52.875 125 C-53.40867187 124.39671875 -53.94234375 123.7934375 -54.4921875 123.171875 C-58.04557009 118.64269305 -58.55850743 114.87119246 -58.4375 109.19140625 C-56.96366973 99.28252955 -48.48835481 91.80328089 -41 85.875 C-40.34 85.33875 -39.68 84.8025 -39 84.25 C-39 83.59 -39 82.93 -39 82.25 C-40.59697169 80.98210214 -40.59697169 80.98210214 -42.625 79.6875 C-50.6368342 73.85942238 -55.10886258 64.87157634 -57 55.25 C-57.93058991 40.9860399 -56.63453225 27.58347879 -47 16.25 C-34.49703794 2.79466388 -17.72914681 -0.31623896 0 0 Z M-18 32.25 C-22.05356491 38.67979262 -21.76617521 45.84944403 -21 53.25 C-19.75871929 57.63881395 -17.35884784 60.26819831 -13.5 62.625 C-6.32012689 65.95851251 1.77897306 66.61857751 9.375 64.0625 C14.87270562 61.66779387 18.31732078 57.51739544 21 52.25 C21.96534768 45.45777894 21.78494765 38.80824609 18.19921875 32.83203125 C14.92629633 28.51433229 11.2308343 26.41240762 6 25.25 C-3.07806131 24.45636581 -11.38921498 25.45033541 -18 32.25 Z M-27.31689453 136.63647461 C-27.87231934 137.49893799 -28.42774414 138.36140137 -29 139.25 C-29.4125 139.889375 -29.825 140.52875 -30.25 141.1875 C-31.31976105 144.12934288 -31.44429115 146.13996198 -31 149.25 C-27.02839964 154.58683798 -22.02037993 156.56212769 -15.6484375 157.65234375 C-13.09619265 157.94808006 -10.56630669 158.12743013 -8 158.25 C-7.15695312 158.29125 -6.31390625 158.3325 -5.4453125 158.375 C5.17615466 158.62714165 16.9713812 158.32695496 26 152.25 C28.53994736 149.32521213 29 147.99388488 29 144.125 C28.25725232 141.14271685 28.25725232 141.14271685 25.90234375 139.63671875 C22.46274372 137.99330286 19.30781371 137.51923765 15.5625 137.1875 C14.81403809 137.11587646 14.06557617 137.04425293 13.29443359 136.97045898 C11.56006487 136.81119413 9.82495572 136.65987913 8.08935547 136.51464844 C5.16068805 136.26376528 2.23568638 135.9835348 -0.68989563 135.69926453 C-3.40363561 135.44268955 -6.11919068 135.21196656 -8.83572388 134.98709106 C-10.19202274 134.87097258 -11.5476118 134.74623208 -12.90231323 134.61276245 C-14.82581385 134.42613195 -16.75282444 134.27683985 -18.6796875 134.12890625 C-19.80101074 134.0316626 -20.92233398 133.93441895 -22.07763672 133.83422852 C-25.20614312 133.97510387 -25.20614312 133.97510387 -27.31689453 136.63647461 Z " fill="#2E2707" transform="translate(458,236.75)"/>
<path d="M0 0 C7.92 0 15.84 0 24 0 C24 11.88 24 23.76 24 36 C35.88 36 47.76 36 60 36 C60 44.58 60 53.16 60 62 C48.12 62 36.24 62 24 62 C24.08868374 69.95586499 24.17919623 77.91134027 24.28729248 85.86690521 C24.33711358 89.57212204 24.38360353 93.27731036 24.421875 96.98266602 C24.45890819 100.55544541 24.50531537 104.12799416 24.55806351 107.70057487 C24.57651214 109.05958931 24.59165481 110.41865301 24.60334396 111.77774239 C24.26216444 123.33922169 24.26216444 123.33922169 29.0625 133.375 C35.87259222 137.14228506 42.61109396 135.99352935 50.0078125 134.5703125 C53.32650886 133.93776724 56.6533244 133.45902034 60 133 C61.03774122 136.07790202 62.05216917 139.16300246 63.0625 142.25 C63.35705078 143.12269531 63.65160156 143.99539063 63.95507812 144.89453125 C64.3659668 146.16103516 64.3659668 146.16103516 64.78515625 147.453125 C65.17006226 148.61569824 65.17006226 148.61569824 65.56274414 149.80175781 C66.05458073 152.2743969 65.93197894 153.66657511 65 156 C49.32670106 165.39333536 27.06465182 167.48460242 9.3984375 163.69140625 C0.39798532 161.09681336 -5.16016498 156.02969248 -9.93359375 148.0390625 C-15.16247112 138.04098928 -14.13688596 126.0606081 -14.09765625 115.125 C-14.09578836 113.58943732 -14.09436621 112.05387404 -14.09336853 110.51831055 C-14.08957256 106.50049153 -14.0797676 102.48270936 -14.06866455 98.46490479 C-14.05838726 94.35551451 -14.05385744 90.24611821 -14.04882812 86.13671875 C-14.03814238 78.09112714 -14.02056963 70.04557242 -14 62 C-19.94 62 -25.88 62 -32 62 C-32 54.41 -32 46.82 -32 39 C-29.504375 38.29875 -27.00875 37.5975 -24.4375 36.875 C-16.02679692 34.31437821 -10.80835796 31.55084879 -6.3125 23.75 C-2.84301407 16.28256339 -1.61462996 8.01334869 0 0 Z " fill="#2F2707" transform="translate(633,198)"/>
<path d="M0 0 C16.83 0 33.66 0 51 0 C51 33.99 51 67.98 51 103 C56.28 103.66 61.56 104.32 67 105 C67 111.93 67 118.86 67 126 C43.9 126 20.8 126 -3 126 C-3 119.07 -3 112.14 -3 105 C2.28 104.34 7.56 103.68 13 103 C12.67 77.92 12.34 52.84 12 27 C4.56894727 23.8158607 4.56894727 23.8158607 -3 21 C-2.69385143 17.87434338 -2.37900284 14.74962377 -2.0625 11.625 C-1.97548828 10.73554688 -1.88847656 9.84609375 -1.79882812 8.9296875 C-1.71181641 8.07890625 -1.62480469 7.228125 -1.53515625 6.3515625 C-1.456604 5.56604004 -1.37805176 4.78051758 -1.29711914 3.97119141 C-1 2 -1 2 0 0 Z " fill="#2E2706" transform="translate(538,237)"/>
<path d="M0 0 C3.88974431 2.910105 6.22927326 6.22257798 7.20703125 10.93359375 C8.00516735 19.12187892 8.12571724 27.01208951 3.20703125 33.93359375 C-1.22960392 39.08009055 -7.05611254 39.99595609 -13.5703125 40.78125 C-20.69422137 41.1180166 -26.25487165 39.57014016 -31.79296875 34.93359375 C-36.75514194 28.8687154 -38.10239895 22.93854293 -37.60546875 15.30859375 C-36.71926513 8.08951929 -34.33641504 3.71517635 -28.67578125 -0.80859375 C-20.17609129 -6.48680987 -8.44035194 -5.0200786 0 0 Z " fill="#2F2707" transform="translate(581.79296875,179.06640625)"/>
</svg>
