<?xml version="1.0" encoding="UTF-8"?>
<svg version="1.1" xmlns="http://www.w3.org/2000/svg" width="1600" height="1600">
<path d="M0 0 C3.59086618 1.57004239 6.89535349 3.54381051 10.25 5.5625 C12.31171632 6.76566682 14.37424999 7.96743388 16.4375 9.16796875 C17.51257812 9.79880371 18.58765625 10.42963867 19.6953125 11.07958984 C25.16811488 14.25992846 30.71007498 17.3136003 36.25 20.375 C38.51175733 21.63144096 40.77347569 22.88795209 43.03515625 24.14453125 C47.20667334 26.45783247 51.38331033 28.76114925 55.56729126 31.05181885 C58.0197832 32.3953457 60.46977565 33.7433939 62.91955566 35.09185791 C64.63371505 36.03297082 66.35147191 36.96752197 68.06933594 37.90185547 C84.67650881 47.04875506 84.67650881 47.04875506 88 55 C88.27739289 57.78655308 88.40381372 60.34303469 88.37752342 63.12416077 C88.38188374 63.92957538 88.38624407 64.73498999 88.39073652 65.56481111 C88.40170121 68.26872006 88.39126512 70.97212 88.38095093 73.67602539 C88.38440701 75.6320856 88.38917123 77.58814386 88.39513266 79.54419804 C88.40767911 84.92345709 88.40145567 90.30255688 88.39217401 95.68181658 C88.38539879 101.48148215 88.39585716 107.28111994 88.40411377 113.08078003 C88.41746962 124.4439575 88.41456511 135.8070756 88.40587585 147.17025542 C88.39910699 156.40347644 88.39817912 165.63668078 88.4014473 174.86990356 C88.401907 176.18287952 88.40236669 177.49585547 88.40284032 178.84861857 C88.40355902 180.84708781 88.40427776 182.84555706 88.405021 184.8440263 C88.4141996 209.82180073 88.40587508 234.79954275 88.38973031 259.77731217 C88.37549331 281.97232704 88.37676719 304.16729027 88.39111328 326.36230469 C88.40717449 351.29416795 88.41354867 376.22600257 88.40427649 401.15787029 C88.40332082 403.815279 88.40237771 406.47268772 88.4014473 409.13009644 C88.40098447 410.4376705 88.40052164 411.74524457 88.40004479 413.0924421 C88.39745203 422.31701637 88.40183206 431.54157236 88.40888596 440.7661438 C88.41729052 452.00430322 88.41504278 463.24239976 88.39904372 474.48055196 C88.39114698 480.21692698 88.38809333 485.95319708 88.39799118 491.68957138 C88.40690948 496.93751894 88.40205253 502.18526398 88.38605852 507.43319309 C88.38269856 509.33485554 88.38443194 511.23653499 88.39168589 513.13818657 C88.40077302 515.71764937 88.39148782 518.29641325 88.37752342 520.87583923 C88.38454692 521.61882181 88.39157042 522.36180438 88.39880675 523.12730157 C88.3402857 528.51447258 87.09568007 532.51636658 83.60205078 536.65673828 C78.16616691 541.22967342 72.10737723 544.50886896 65.875 547.875 C64.68118726 548.52781745 63.48783782 549.18148274 62.29492188 549.8359375 C59.79610749 551.20550151 57.29499494 552.57072347 54.79199219 553.93261719 C49.28496621 556.93128302 43.79856715 559.96727426 38.31030273 563.00009155 C36.48926634 564.00592867 34.66759631 565.0106083 32.84570312 566.01489258 C20.21309201 572.97865374 7.6059354 579.9880869 -5 587 C-29.12031616 600.41666092 -29.12031616 600.41666092 -39.265625 606.0078125 C-40.17607574 606.50978401 -40.17607574 606.50978401 -41.10491943 607.02189636 C-44.15649447 608.70393435 -47.20940735 610.38346759 -50.26464844 612.05883789 C-56.21467582 615.32639443 -62.1319697 618.63792752 -68 622.05078125 C-69.11681152 622.6945874 -70.23362305 623.33839355 -71.38427734 624.00170898 C-73.47062346 625.20771575 -75.54975344 626.42633881 -77.61962891 627.66040039 C-84.37415115 631.54791597 -91.2777288 634.84673814 -99.26367188 633.66503906 C-105.93462357 631.68901775 -112.06294344 627.96299084 -118.125 624.625 C-119.83308838 623.69506226 -119.83308838 623.69506226 -121.57568359 622.74633789 C-129.91856967 618.19581124 -138.19571585 613.52937095 -146.45361328 608.82666016 C-153.25491094 604.96044979 -160.110839 601.20710948 -167 597.5 C-175.85111958 592.73670953 -184.61976686 587.84634335 -193.35546875 582.875 C-200.19099847 578.99562706 -207.07918606 575.22482717 -214 571.5 C-223.81064441 566.21642939 -233.53531265 560.79716612 -243.21484375 555.27734375 C-247.24866182 552.97991452 -251.30510173 550.72963377 -255.37890625 548.50390625 C-256.42425537 547.92769531 -257.46960449 547.35148438 -258.54663086 546.7578125 C-260.54338015 545.65816724 -262.54524166 544.56773487 -264.55297852 543.48828125 C-271.56714447 539.60285765 -276.47125047 535.92535796 -279 528 C-279.1894904 525.38925676 -279.27872184 522.88652092 -279.26742554 520.27738953 C-279.27195665 519.50697053 -279.27648776 518.73655154 -279.28115618 517.94278651 C-279.29380149 515.36503538 -279.29217973 512.78749549 -279.29052734 510.2097168 C-279.29651253 508.35991138 -279.30331806 506.51010847 -279.31088257 504.66030884 C-279.32855126 499.63748733 -279.33323833 494.61473396 -279.33451414 489.59188437 C-279.33593587 486.45282327 -279.34020589 483.31377948 -279.34550858 480.17472267 C-279.3640121 469.22071864 -279.37217883 458.26676328 -279.37060547 447.31274414 C-279.36940415 437.1067857 -279.39050374 426.90103878 -279.4220928 416.69513386 C-279.44825745 407.92894074 -279.45897267 399.16281668 -279.45769465 390.39658481 C-279.45718505 385.1626621 -279.46286718 379.92892733 -279.48405075 374.69504356 C-279.50343609 369.77100013 -279.5035555 364.84732386 -279.48901749 359.92326736 C-279.48692863 358.11894125 -279.49163489 356.31459213 -279.5037384 354.5103054 C-279.51922661 352.04096185 -279.50986005 349.57287874 -279.49447632 347.1035614 C-279.50476344 346.3948855 -279.51505057 345.68620961 -279.52564943 344.95605868 C-279.4429544 338.92127748 -277.52046823 333.77081944 -273.45839822 329.30527514 C-268.59430377 324.7221239 -262.56197075 321.81967748 -256.6875 318.75 C-254.52042421 317.59712287 -252.35376019 316.44347142 -250.1875 315.2890625 C-249.12789062 314.72735352 -248.06828125 314.16564453 -246.9765625 313.58691406 C-243.02117078 311.47815043 -239.0999104 309.3122132 -235.1875 307.125 C-234.4857666 306.73368896 -233.7840332 306.34237793 -233.06103516 305.93920898 C-231.55383252 305.09867288 -230.04684279 304.25775491 -228.54003906 303.41650391 C-223.3847319 300.5415431 -218.222924 297.67826254 -213.0625 294.8125 C-210.72783338 293.51568112 -208.39318872 292.21882284 -206.05859375 290.921875 C-205.47310257 290.59662338 -204.88761139 290.27137177 -204.28437805 289.93626404 C-200.28402309 287.71382166 -196.2844426 285.48998998 -192.28515625 283.265625 C-179.53932292 276.17785326 -166.78396673 269.10774667 -154.01000977 262.07080078 C-152.79963334 261.40398694 -151.58926553 260.73715747 -150.37890625 260.0703125 C-149.47695274 259.57339401 -149.47695274 259.57339401 -148.55677795 259.06643677 C-144.75778025 256.97227599 -140.96263369 254.87129759 -137.17016602 252.76533508 C-134.58850792 251.33192898 -132.00567827 249.9006408 -129.42279053 248.4694519 C-128.21131672 247.79741564 -127.00039093 247.12439021 -125.7901001 246.45022583 C-119.39768764 242.88994213 -112.96896239 239.40709349 -106.453125 236.078125 C-105.33196289 235.50352539 -104.21080078 234.92892578 -103.05566406 234.33691406 C-98.05496424 232.149008 -94.13721959 231.84180808 -89.01342773 233.73339844 C-82.81441152 236.53055988 -76.84018318 239.67444772 -70.875 242.9375 C-69.30999756 243.7891272 -69.30999756 243.7891272 -67.71337891 244.65795898 C-59.72775746 249.01850487 -51.7910976 253.46324714 -43.89404297 257.98217773 C-37.17651573 261.81407889 -30.39564974 265.52374044 -23.60400391 269.22241211 C-22.07293755 270.05684467 -22.07293755 270.05684467 -20.51094055 270.90813446 C-18.00749002 272.27245047 -15.50383796 273.63639518 -13 275 C-12.99978263 274.43058679 -12.99956526 273.86117359 -12.99934131 273.27450544 C-12.98583011 239.53830312 -12.94637189 205.8022387 -12.87314438 172.06611367 C-12.86437746 168.0168138 -12.85582768 163.9675135 -12.84741211 159.91821289 C-12.84573305 159.11205845 -12.84405398 158.30590402 -12.84232404 157.47532066 C-12.81564268 144.41630857 -12.80655815 131.35734037 -12.80395857 118.29830382 C-12.80090083 104.90192119 -12.77897498 91.50566562 -12.73947543 78.10934037 C-12.71569166 69.84075668 -12.70668554 61.57242651 -12.71648689 53.3038133 C-12.72179615 47.63633253 -12.70880435 41.96907925 -12.6813371 36.30166326 C-12.66602421 33.03004377 -12.66157107 29.75903822 -12.67340279 26.48738861 C-12.68495942 22.94157873 -12.66600358 19.39721379 -12.63923645 15.85151672 C-12.64990971 14.81552489 -12.66058297 13.77953306 -12.67157966 12.71214753 C-12.60485675 7.9930488 -12.5475408 5.73348687 -9.65828991 1.86303997 C-6.00503507 -0.69731274 -4.40881158 -0.76029506 0 0 Z M-111 349.1875 C-112.14774902 349.82099365 -113.29549805 350.4544873 -114.47802734 351.10717773 C-117.9969269 353.05121895 -121.49927355 355.02341294 -125 357 C-126.01352539 357.57073242 -127.02705078 358.14146484 -128.07128906 358.72949219 C-131.85722 360.86361191 -135.6411 363.00104608 -139.41577148 365.1550293 C-144.43003744 368.01128986 -149.46961055 370.80609425 -154.55859375 373.52734375 C-155.6451123 374.10863037 -156.73163086 374.68991699 -157.85107422 375.28881836 C-159.93403902 376.39870891 -162.02013333 377.50275366 -164.10986328 378.59985352 C-165.05458496 379.10315186 -165.99930664 379.6064502 -166.97265625 380.125 C-167.80031494 380.56070313 -168.62797363 380.99640625 -169.48071289 381.4453125 C-175.20769156 384.61757649 -175.20769156 384.61757649 -178.55502796 389.88154793 C-178.76716667 392.19531393 -178.78808383 394.44266242 -178.74462891 396.76586914 C-178.75193024 397.63799545 -178.75923157 398.51012177 -178.76675415 399.40867615 C-178.78293706 402.28496753 -178.75577824 405.15899504 -178.7265625 408.03515625 C-178.725525 410.03624978 -178.72656155 412.03734537 -178.72958374 414.03843689 C-178.72940443 418.22914115 -178.70857405 422.41907478 -178.67236328 426.60961914 C-178.62695826 431.98237673 -178.62590679 437.35401007 -178.63939857 442.72690678 C-178.64607947 446.85764061 -178.63281636 450.98811785 -178.61314011 455.11880302 C-178.6054402 457.09994604 -178.603138 459.08111759 -178.6063118 461.06227303 C-178.60705317 463.82991109 -178.58181761 466.59610433 -178.54931641 469.36352539 C-178.55427124 470.18285553 -178.55922607 471.00218567 -178.56433105 471.84634399 C-178.4969476 475.43933801 -178.34725806 477.54874088 -176.12217712 480.44021606 C-173.70885887 482.2139865 -171.28293217 483.70919259 -168.65234375 485.14453125 C-167.05265747 486.02467896 -167.05265747 486.02467896 -165.4206543 486.92260742 C-163.69649292 487.85810425 -163.69649292 487.85810425 -161.9375 488.8125 C-160.72852874 489.47494916 -159.51995784 490.13812946 -158.31176758 490.80200195 C-155.79854268 492.18229441 -153.28361799 493.55941644 -150.76757812 494.93457031 C-146.01965588 497.53308295 -141.29267355 500.16860462 -136.56591797 502.80541992 C-133.21229069 504.67368938 -129.85253352 506.53056752 -126.4921875 508.38671875 C-122.19997124 510.76224065 -117.93895837 513.18337633 -113.6953125 515.64453125 C-112.70120361 516.21147705 -111.70709473 516.77842285 -110.68286133 517.36254883 C-108.82933479 518.41992762 -106.98461376 519.49296483 -105.15112305 520.5847168 C-100.76236394 523.06271782 -97.27944986 524.86589663 -92.0847168 523.75195312 C-87.59260155 522.13165626 -83.58333592 519.69606817 -79.5 517.25 C-77.45563485 516.05912214 -75.41002103 514.87038574 -73.36328125 513.68359375 C-72.31479004 513.07241699 -71.26629883 512.46124023 -70.18603516 511.83154297 C-65.07335394 508.89243688 -59.88281364 506.10211218 -54.6875 503.3125 C-45.36664063 498.2878449 -36.06417839 493.23527121 -26.84033203 488.03417969 C-25.15798707 487.08878127 -23.468034 486.15695447 -21.77734375 485.2265625 C-20.88144531 484.71867188 -19.98554687 484.21078125 -19.0625 483.6875 C-18.33160156 483.27886719 -17.60070313 482.87023437 -16.84765625 482.44921875 C-14.37505314 480.50981969 -13.37127582 478.85027398 -12 476 C-11.7049096 473.13760714 -11.56928574 470.49359557 -11.58007812 467.63305664 C-11.57160858 466.8031572 -11.56313904 465.97325775 -11.55441284 465.11820984 C-11.531064 462.38203497 -11.53002014 459.6464231 -11.53125 456.91015625 C-11.52414736 455.00353267 -11.51644821 453.09691123 -11.50817871 451.19029236 C-11.49473893 447.19654395 -11.49316299 443.2029932 -11.49902344 439.20922852 C-11.50492037 434.09669145 -11.47432594 428.98510373 -11.43390656 423.87275028 C-11.40803114 419.93585621 -11.40515197 415.99919082 -11.40879822 412.06222343 C-11.40710696 410.17759248 -11.39746383 408.29295096 -11.37965393 406.4084034 C-11.35746581 403.77040549 -11.36716421 401.13433039 -11.38476562 398.49633789 C-11.37150238 397.72160126 -11.35823914 396.94686462 -11.34457397 396.14865112 C-11.43272118 390.45000972 -12.93508146 387.99611619 -17 384 C-19.55624437 382.18623108 -19.55624437 382.18623108 -22.3671875 380.80859375 C-23.40576904 380.26323975 -24.44435059 379.71788574 -25.5144043 379.15600586 C-26.62340088 378.58889893 -27.73239746 378.02179199 -28.875 377.4375 C-30.63661056 376.51341869 -32.39820444 375.58930119 -34.15818787 374.66212463 C-35.35535271 374.03155206 -36.5532442 373.40235718 -37.75184631 372.77452087 C-43.46357549 369.77737719 -49.08308131 366.62964976 -54.6875 363.4375 C-55.60869629 362.91438232 -56.52989258 362.39126465 -57.47900391 361.85229492 C-60.32062561 360.23711734 -63.16046963 358.61885104 -66 357 C-70.2480538 354.57989267 -74.49845135 352.16396117 -78.75 349.75 C-80.22472778 348.90779907 -80.22472778 348.90779907 -81.72924805 348.04858398 C-82.63843994 347.53239502 -83.54763184 347.01620605 -84.484375 346.484375 C-85.28584961 346.02772461 -86.08732422 345.57107422 -86.91308594 345.10058594 C-96.24537939 340.17896931 -102.60781708 344.44422682 -111 349.1875 Z " fill="#35464E" transform="translate(1112,400)"/>
<path d="M0 0 C1.24468635 0.67901302 2.48981061 1.35722387 3.73535156 2.03466797 C12.35131366 6.73534479 20.9032731 11.55126506 29.43017578 16.41137695 C36.19630503 20.26334623 43.01880153 23.99850705 49.875 27.6875 C58.72614182 32.45074784 67.49476794 37.34115727 76.23046875 42.3125 C83.06599847 46.19187294 89.95418606 49.96267283 96.875 53.6875 C106.68564441 58.97107061 116.41031265 64.39033388 126.08984375 69.91015625 C130.12366182 72.20758548 134.18010173 74.45786623 138.25390625 76.68359375 C139.29925537 77.25980469 140.34460449 77.83601562 141.42163086 78.4296875 C143.41838015 79.52933276 145.42024166 80.61976513 147.42797852 81.69921875 C154.44100748 85.58401252 159.34844372 89.26230407 161.875 97.1875 C162.06456027 99.8107131 162.15371456 102.32644145 162.14242554 104.94807434 C162.14695665 105.72257689 162.15148776 106.49707943 162.15615618 107.29505175 C162.1688021 109.88662209 162.16717969 112.47798233 162.16552734 115.06958008 C162.1715125 116.92923757 162.17831801 118.78889257 162.18588257 120.64854431 C162.20355164 125.6982244 162.20823835 130.74783671 162.20951414 135.79754472 C162.21093584 138.95335676 162.21520582 142.10915157 162.22050858 145.26495934 C162.23901222 156.277318 162.24717881 167.28962825 162.24560547 178.30200195 C162.24440415 188.56249149 162.26550384 198.82277065 162.2970928 209.08320695 C162.32325703 217.89610877 162.33397269 226.70894188 162.33269465 235.52188224 C162.33218504 240.78375022 162.33786782 246.04543126 162.35905075 251.30726051 C162.37843539 256.25756815 162.37855597 261.20751056 162.36401749 266.15783119 C162.36192854 267.97183262 162.3666354 269.78585693 162.3787384 271.59981918 C162.39422535 274.08229772 162.38486083 276.56352229 162.36947632 279.04597473 C162.38490701 280.114825 162.38490701 280.114825 162.40064943 281.2052682 C162.32669808 286.62997555 160.7564382 290.68843095 157.875 295.1875 C155.7253418 297.26708984 155.7253418 297.26708984 153.38671875 298.7734375 C152.06486572 299.62760254 152.06486572 299.62760254 150.71630859 300.49902344 C145.78627419 303.42874658 140.76753526 306.15282579 135.6875 308.8125 C127.14174987 313.34761147 118.65310435 317.95552362 110.25 322.75 C102.50913362 327.16056355 94.72038436 331.46564358 86.875 335.6875 C78.14235214 340.38899161 69.48429035 345.20486632 60.86230469 350.10595703 C51.93371591 355.17373833 42.94780628 360.13462814 33.95263672 365.08276367 C32.72490575 365.75824781 31.49720396 366.43378499 30.26953125 367.109375 C29.66059021 367.44447586 29.05164917 367.77957672 28.42425537 368.12483215 C24.09123313 370.51167311 19.76799273 372.91561191 15.44921875 375.328125 C14.5438588 375.8333519 14.5438588 375.8333519 13.62020874 376.3487854 C10.76365776 377.94290691 7.90843413 379.53924941 5.05566406 381.14013672 C-0.11423323 384.02586763 -5.3107487 386.85067394 -10.57421875 389.5625 C-11.51483154 390.0471875 -12.45544434 390.531875 -13.42456055 391.03125 C-19.44817332 393.61038661 -24.29259528 393.27794153 -30.3515625 390.9453125 C-34.73033197 388.91894453 -38.91413827 386.53716864 -43.125 384.1875 C-45.27663364 383.00911914 -47.42903675 381.83214263 -49.58203125 380.65625 C-55.18152155 377.59102817 -60.76557022 374.49855357 -66.34506226 371.39710999 C-70.72416291 368.9634214 -75.10798894 366.5385082 -79.49609375 364.12109375 C-80.09646957 363.79033844 -80.6968454 363.45958313 -81.31541443 363.11880493 C-82.52354696 362.45328521 -83.73169207 361.78778832 -84.93984985 361.12231445 C-95.96083738 355.05022692 -106.96488115 348.94804174 -117.96142578 342.83178711 C-126.17316983 338.26644988 -134.39666975 333.72283689 -142.625 329.1875 C-155.53292708 322.07144424 -168.43069109 314.93783078 -181.30126953 307.75439453 C-183.77483259 306.3818087 -186.25704351 305.02780374 -188.74609375 303.68359375 C-189.99741475 302.99743033 -191.24871896 302.31123629 -192.5 301.625 C-193.99660156 300.81869141 -193.99660156 300.81869141 -195.5234375 299.99609375 C-199.79246656 297.02828526 -203.25459189 293.09437873 -205.125 288.1875 C-205.31638506 285.57481215 -205.3991945 283.06974113 -205.38569641 280.45779419 C-205.38952196 279.67456783 -205.39334751 278.89134147 -205.39728898 278.08438098 C-205.40761566 275.45739033 -205.40362746 272.83061839 -205.3996582 270.20361328 C-205.40400489 268.32115476 -205.40918789 266.43869801 -205.41514587 264.5562439 C-205.42855249 259.44051868 -205.42911264 254.32486727 -205.42658257 249.2091279 C-205.42551389 244.93969275 -205.43039366 240.67027259 -205.435188 236.40084064 C-205.44628915 226.32857639 -205.44671731 216.25634944 -205.44067383 206.18408203 C-205.4346339 195.79125593 -205.44694418 185.39856522 -205.4682439 175.00576222 C-205.48585475 166.08505837 -205.49186203 157.16439762 -205.48860615 148.24367702 C-205.48679217 142.91482608 -205.4894409 137.58607169 -205.50332069 132.25723648 C-205.51588581 127.24543609 -205.51396735 122.23384682 -205.50090981 117.22204971 C-205.49854152 115.3830254 -205.5012877 113.5439863 -205.50953293 111.70497894 C-205.51998097 109.19346485 -205.51191554 106.68266162 -205.4992218 104.1711731 C-205.50659609 103.44431655 -205.51397037 102.71746001 -205.52156812 101.9685775 C-205.46476844 96.62250062 -204.19225828 92.63745017 -200.72705078 88.53076172 C-195.29116691 83.95782658 -189.23237723 80.67863104 -183 77.3125 C-181.80618726 76.65968255 -180.61283782 76.00601726 -179.41992188 75.3515625 C-176.92110749 73.98199849 -174.41999494 72.61677653 -171.91699219 71.25488281 C-166.41014561 68.25631466 -160.9239335 65.22040905 -155.43585205 62.18768311 C-153.61319179 61.180978 -151.78986547 60.1754901 -149.96630859 59.17041016 C-141.84314924 54.69293415 -133.73097832 50.19602782 -125.625 45.6875 C-116.34239171 40.52514315 -107.05086272 35.37936545 -97.75 30.25 C-96.85048615 29.75383682 -96.85048615 29.75383682 -95.93280029 29.24765015 C-89.79844206 25.86414598 -83.66289226 22.48282049 -77.52474976 19.10618591 C-75.04518589 17.74191349 -72.56618862 16.37661326 -70.08721924 15.01126099 C-68.26625797 14.00894888 -66.44441576 13.00825088 -64.62255859 12.00756836 C-58.88366519 8.85017513 -53.17203386 5.65368973 -47.5078125 2.36328125 C-46.46995605 1.76346436 -45.43209961 1.16364746 -44.36279297 0.5456543 C-42.44166453 -0.5687509 -40.52609683 -1.69282814 -38.61767578 -2.82885742 C-23.62353117 -11.51330617 -14.56294575 -8.06836486 0 0 Z " fill="#4AAD4E" transform="translate(605.125,642.8125)"/>
<path d="M0 0 C6.19901929 2.79716283 12.1732237 5.94108397 18.13842773 9.20410156 C19.18321289 9.77257812 20.22799805 10.34105469 21.30444336 10.92675781 C29.3683909 15.32968287 37.36879358 19.83994709 45.35449219 24.3828125 C53.30995888 28.89772842 61.33995142 33.26552652 69.39111328 37.60693359 C77.45829751 41.95823228 85.47914546 46.38658312 93.48217773 50.85449219 C98.59354608 53.70597314 103.7099612 56.54838148 108.82592773 59.39160156 C109.96328369 60.02404785 111.10063965 60.65649414 112.27246094 61.30810547 C118.97518454 65.03349966 125.68715606 68.74156745 132.40815735 72.43388367 C137.85370998 75.42625341 143.29053483 78.43415524 148.72436523 81.44775391 C150.83065524 82.61252978 152.93978312 83.77219752 155.05249023 84.92529297 C157.71451472 86.37868134 160.36510239 87.85094212 163.01342773 89.32910156 C163.76624023 89.73354492 164.51905273 90.13798828 165.29467773 90.5546875 C171.12658731 93.85417738 174.84045794 97.74769219 177.01342773 104.26660156 C177.12355988 106.58024447 177.1725054 108.89694149 177.19042969 111.21313477 C177.19700089 111.91594574 177.20357208 112.61875671 177.21034241 113.34286499 C177.23004565 115.66770539 177.24173118 117.99248129 177.25170898 120.31738281 C177.25578451 121.11251974 177.25986004 121.90765667 177.26405907 122.72688866 C177.28490692 126.93535476 177.29921429 131.14378837 177.30859375 135.35229492 C177.31965684 139.6934931 177.35405883 144.03417853 177.39376545 148.3751955 C177.41993998 151.71842893 177.42828629 155.0615403 177.43187523 158.40486717 C177.43673889 160.00481823 177.44834668 161.60476392 177.46691322 163.20461464 C177.4913243 165.44744884 177.4903369 167.68895773 177.48339844 169.93188477 C177.4921978 171.84358208 177.4921978 171.84358208 177.50117493 173.79389954 C176.83343692 178.54811475 174.74107544 181.58905965 171.32983398 184.90136719 C165.73855145 188.95473571 159.8386289 192.38217006 153.8170166 195.75592041 C151.33111715 197.14894948 148.85238016 198.55450798 146.37322998 199.95950317 C145.10096803 200.68050863 143.82838419 201.40094639 142.55548096 202.12081909 C136.59525092 205.49401352 130.67518245 208.93421035 124.76342773 212.39160156 C123.80178711 212.95057129 122.84014648 213.50954102 121.84936523 214.08544922 C116.68950859 217.08988988 111.56356616 220.1409855 106.46655273 223.25097656 C105.38664062 223.90179199 104.30672852 224.55260742 103.1940918 225.22314453 C101.12997349 226.46814313 99.07403315 227.72684101 97.02807617 229.00146484 C91.43508604 232.354361 87.57290202 234.43177134 81.01342773 233.26660156 C77.96469554 231.03652241 77.10564958 229.85469254 76.51463318 226.08583069 C76.51488243 224.2031675 76.51488243 224.2031675 76.51513672 222.2824707 C76.50685852 221.24025612 76.50685852 221.24025612 76.49841309 220.17698669 C76.48910529 218.67215358 76.48897793 217.16724168 76.49700737 215.6624012 C76.50964447 213.27855781 76.4983424 210.89587115 76.48097229 208.5120697 C76.45426728 204.31028428 76.44867665 200.10878249 76.45007324 195.90692139 C76.45230134 189.18523074 76.43814917 182.46389152 76.39448738 175.74233818 C76.38466028 173.39737812 76.39336062 171.05297163 76.40318298 168.70802307 C76.39703714 167.26538737 76.39012486 165.82275466 76.38232422 164.38012695 C76.38328598 163.12422256 76.38424774 161.86831818 76.38523865 160.57435608 C75.98147407 156.98233105 75.17704214 155.13031617 73.01342773 152.26660156 C70.41864444 150.3779244 70.41864444 150.3779244 67.32592773 148.80566406 C66.16569092 148.17684326 65.0054541 147.54802246 63.81005859 146.90014648 C62.54457047 146.23052663 61.27902539 145.56101439 60.01342773 144.89160156 C58.70610855 144.18768885 57.39955915 143.48234477 56.09375 142.77563477 C53.39918052 141.31831781 50.70168684 139.86663767 48.00219727 138.41845703 C41.94859483 135.16259811 35.9530028 131.80374447 29.95092773 128.45410156 C27.7361843 127.22735794 25.52134263 126.00079165 23.30639648 124.77441406 C19.2268116 122.51040349 15.16894854 120.21377179 11.12670898 117.88378906 C10.21606689 117.36534424 9.3054248 116.84689941 8.3671875 116.31274414 C6.69270913 115.35861333 5.0245978 114.3931731 3.36474609 113.41381836 C-1.26367821 110.79542957 -4.55687537 109.31116134 -9.98657227 110.26660156 C-13.81395627 111.8891131 -17.38011096 113.89330816 -20.98657227 115.95410156 C-22.04183105 116.5413501 -23.09708984 117.12859863 -24.18432617 117.73364258 C-27.46088993 119.56222377 -30.72492296 121.41156945 -33.98657227 123.26660156 C-35.91087968 124.35544682 -37.83535187 125.44400094 -39.76000977 126.53222656 C-42.56188453 128.11726071 -45.36231917 129.70452796 -48.15795898 131.30053711 C-53.40837095 134.28808912 -58.69332949 137.19654176 -64.03344727 140.02050781 C-64.92037766 140.49102821 -64.92037766 140.49102821 -65.82522583 140.97105408 C-68.70164779 142.49606194 -71.58258896 144.01100606 -74.47241211 145.51049805 C-76.03016357 146.33336304 -76.03016357 146.33336304 -77.61938477 147.17285156 C-78.99441162 147.88924805 -78.99441162 147.88924805 -80.3972168 148.62011719 C-85.63020907 151.86980791 -85.63020907 151.86980791 -88.44908524 157.13181496 C-88.63025187 159.41496049 -88.65081779 161.65049233 -88.61767578 163.94067383 C-88.62483109 164.80304657 -88.63198639 165.66541931 -88.63935852 166.55392456 C-88.65623384 169.39749516 -88.63685177 172.23948675 -88.61547852 175.08300781 C-88.61630725 177.06168244 -88.61876679 179.040357 -88.62278748 181.01902771 C-88.62564458 185.16255455 -88.61095133 189.30554056 -88.58349609 193.44897461 C-88.54939131 198.76117607 -88.55543982 204.0724119 -88.57415867 209.38465977 C-88.58472399 213.46905066 -88.57579545 217.55321662 -88.56077385 221.63758659 C-88.55558965 223.59640777 -88.55607672 225.55525242 -88.5623188 227.51407051 C-88.56776621 230.25053614 -88.54741239 232.98561609 -88.52001953 235.72192383 C-88.52654541 236.53190323 -88.53307129 237.34188263 -88.53979492 238.17640686 C-88.47919403 241.73466494 -88.3248757 243.82417994 -86.13092041 246.69335938 C-83.47492047 248.64198473 -80.7661338 250.17944218 -77.84204102 251.70019531 C-76.94556351 252.17136528 -76.94556351 252.17136528 -76.03097534 252.65205383 C-74.74875457 253.32535663 -73.46486483 253.99548899 -72.17947388 254.66271973 C-68.76570772 256.43544896 -65.36463221 258.23219204 -61.96313477 260.02832031 C-61.27995682 260.3885025 -60.59677887 260.74868469 -59.89289856 261.11978149 C-53.87719333 264.30145378 -47.95235803 267.63106899 -42.04907227 271.01660156 C-33.66675301 275.81289403 -25.17434971 280.33593876 -16.59008789 284.7590332 C-9.98789304 288.17786754 -3.50061766 291.75970462 2.95092773 295.45410156 C12.20690482 300.75243942 21.58090596 305.79275249 31.01342773 310.76660156 C43.29427559 317.24382212 55.44440349 323.91133245 67.47680664 330.84228516 C69.29634856 331.86396057 71.13446174 332.85282697 72.98364258 333.81982422 C74.45824951 334.59205322 74.45824951 334.59205322 75.96264648 335.37988281 C76.85685303 335.83790283 77.75105957 336.29592285 78.67236328 336.76782227 C81.15581387 338.35775898 82.4669367 339.77404752 84.01342773 342.26660156 C84.48217773 344.45019531 84.48217773 344.45019531 84.51342773 346.70410156 C84.55983398 347.81591797 84.55983398 347.81591797 84.60717773 348.95019531 C83.47555129 353.36502743 80.35732129 355.44324186 76.64282227 357.71899414 C73.72818605 359.34751656 70.78545739 360.90869503 67.82592773 362.45410156 C65.64062208 363.61609158 63.45572887 364.77885757 61.27124023 365.94238281 C59.66297363 366.79437256 59.66297363 366.79437256 58.0222168 367.66357422 C54.0555913 369.77691915 50.12375277 371.94830362 46.20092773 374.14160156 C45.51168213 374.52558105 44.82243652 374.90956055 44.11230469 375.30517578 C40.66592029 377.22570657 37.2217509 379.15019585 33.77758789 381.07470703 C30.78985089 382.74387368 27.80079705 384.41066648 24.81118774 386.07647705 C23.06540453 387.05011371 21.32101037 388.02623973 19.57666016 389.00244141 C-1.95390068 400.99964876 -1.95390068 400.99964876 -8.98657227 400.26660156 C-16.1260962 398.03203358 -22.5026532 394.46843571 -29.04907227 390.89160156 C-30.19230957 390.27164307 -31.33554688 389.65168457 -32.51342773 389.01293945 C-40.8762516 384.46837059 -49.16946486 379.80354262 -57.43994141 375.09326172 C-64.24144221 371.22726875 -71.09734821 367.47374497 -77.98657227 363.76660156 C-86.83769185 359.0033111 -95.60633912 354.11294491 -104.34204102 349.14160156 C-111.17757073 345.26222863 -118.06575833 341.49142873 -124.98657227 337.76660156 C-133.84200165 332.99746668 -142.64099441 328.14096897 -151.375 323.15258789 C-156.33016425 320.32259199 -161.30427943 317.54331557 -166.33032227 314.84082031 C-167.37115967 314.27363281 -168.41199707 313.70644531 -169.484375 313.12207031 C-171.46564282 312.04376061 -173.45435052 310.97896183 -175.45166016 309.93066406 C-182.32231143 306.16032727 -187.44719894 301.88472154 -189.98657227 294.26660156 C-190.08842928 291.76346778 -190.13438324 289.28789697 -190.13374329 286.78450012 C-190.13741997 286.01578998 -190.14109666 285.24707983 -190.14488477 284.45507544 C-190.15592533 281.87116663 -190.15976608 279.28729802 -190.16357422 276.70336914 C-190.16983862 274.85386019 -190.1764854 273.0043525 -190.18348694 271.15484619 C-190.20453352 265.07361732 -190.21489026 258.99238819 -190.22485352 252.91113281 C-190.22890093 250.81778131 -190.23301784 248.72442995 -190.2372036 246.63107872 C-190.25625702 236.79597428 -190.27048742 226.96087735 -190.27881557 217.12575799 C-190.28858729 205.77322829 -190.31490454 194.42089361 -190.35531646 183.06843263 C-190.38547985 174.29379575 -190.40028468 165.51921476 -190.40359658 156.74452704 C-190.40594693 151.50385527 -190.41490545 146.2633918 -190.44005775 141.02277565 C-190.4633471 136.09056747 -190.46756817 131.15870461 -190.45729637 126.22645569 C-190.4568011 124.41889993 -190.46311892 122.61132712 -190.47685242 120.80382347 C-190.49459267 118.33001119 -190.4874554 115.85743537 -190.47431946 113.38362122 C-190.4852887 112.67358108 -190.49625795 111.96354094 -190.5075596 111.23198444 C-190.4304707 105.19092741 -188.51111156 100.04176302 -184.4449442 95.57192928 C-179.58098757 90.98865733 -173.54851359 88.08626367 -167.67407227 85.01660156 C-165.50699648 83.86372443 -163.34033245 82.71007299 -161.17407227 81.55566406 C-160.11446289 80.99395508 -159.05485352 80.43224609 -157.96313477 79.85351562 C-154.00774305 77.744752 -150.08648266 75.57881476 -146.17407227 73.39160156 C-145.47233887 73.00029053 -144.77060547 72.60897949 -144.04760742 72.20581055 C-142.54040478 71.36527445 -141.03341506 70.52435647 -139.52661133 69.68310547 C-134.37130416 66.80814467 -129.20949627 63.94486411 -124.04907227 61.07910156 C-121.71440565 59.78228268 -119.37976099 58.4854244 -117.04516602 57.18847656 C-116.16692924 56.70059914 -116.16692924 56.70059914 -115.27095032 56.2028656 C-111.27059535 53.98042322 -107.27101487 51.75659154 -103.27172852 49.53222656 C-90.52589519 42.44445482 -77.770539 35.37434823 -64.99658203 28.33740234 C-63.78620561 27.6705885 -62.57583779 27.00375903 -61.36547852 26.33691406 C-60.76417618 26.00563507 -60.16287384 25.67435608 -59.54335022 25.33303833 C-55.74435251 23.23887755 -51.94920595 21.13789915 -48.15673828 19.03193665 C-45.57508019 17.59853054 -42.99225054 16.16724236 -40.40936279 14.73605347 C-39.19788899 14.0640172 -37.9869632 13.39099177 -36.77667236 12.71682739 C-30.3842599 9.15654369 -23.95553465 5.67369505 -17.43969727 2.34472656 C-15.7579541 1.48282715 -15.7579541 1.48282715 -14.04223633 0.60351562 C-9.04153651 -1.58439043 -5.12379185 -1.89159036 0 0 Z " fill="#35464E" transform="translate(1422.986572265625,633.7333984375)"/>
<path d="M0 0 C3.48482194 1.65102253 6.87404974 3.46861771 10.2578125 5.31640625 C12.92302484 6.7716968 15.60125217 8.20103855 18.28125 9.62890625 C29.30044522 15.52538954 40.21052805 21.60350605 51.07250977 27.78393555 C57.90838552 31.66410329 64.7972007 35.4352345 71.71875 39.16015625 C80.56984734 43.92348936 89.33851577 48.81381228 98.07421875 53.78515625 C104.90974693 57.66452832 111.79790013 61.43539719 118.71875 65.16015625 C128.73183352 70.55162841 138.658198 76.08192187 148.53515625 81.71875 C151.69090433 83.51915581 154.85804597 85.28837328 158.05859375 87.0078125 C166.19334337 91.40959075 172.83738173 95.49158295 175.71875 104.66015625 C176.01803134 108.07571851 175.99274029 111.48173278 175.97944641 114.90856934 C175.98327196 115.95061948 175.98709751 116.99266963 175.99103898 118.06629705 C176.00136985 121.56312934 175.99737663 125.05979746 175.9934082 128.55664062 C175.99775458 131.06155042 176.00293748 133.56645888 176.00889587 136.07136536 C176.020911 142.17179561 176.02343647 148.27216518 176.02109561 154.37260497 C176.01931265 159.3304955 176.02106161 164.28837266 176.02532005 169.2462616 C176.02591524 169.95185765 176.02651043 170.6574537 176.02712366 171.38443145 C176.0283354 172.81783013 176.02954954 174.2512288 176.03076603 175.68462747 C176.04164175 189.12603828 176.03947876 202.56742399 176.03338119 216.00883621 C176.02821034 228.3077387 176.03947181 240.60656203 176.05847941 252.90544885 C176.07784622 265.53352737 176.08611595 278.16156841 176.08235615 290.78966188 C176.08044256 297.87959174 176.08294716 304.96945419 176.09707069 312.05937195 C176.11021313 318.72421225 176.10774029 325.38886808 176.09465981 332.05371666 C176.09228646 334.50270834 176.09505564 336.95171107 176.10328293 339.40069008 C176.11368769 342.73789423 176.10569991 346.07455884 176.0929718 349.41174316 C176.10034609 350.38596017 176.10772037 351.36017718 176.11531812 352.36391592 C176.07596556 357.25196765 175.98990097 360.73469172 172.71875 364.66015625 C169.61586644 366.21159803 167.05771634 366.32370166 163.71875 365.66015625 C159.54739933 363.77461559 155.69002232 361.40957922 151.78125 359.03515625 C150.62394834 358.34743906 149.46572832 357.66126519 148.30664062 356.9765625 C145.92670931 355.56817491 143.55160526 354.15214672 141.18017578 352.72949219 C136.05447009 349.65830416 130.88420824 346.66380176 125.71875 343.66015625 C124.75461182 343.09603027 123.79047363 342.5319043 122.79711914 341.95068359 C117.45416764 338.82450267 112.09620768 335.72657345 106.71875 332.66015625 C105.53901204 331.98576534 104.35932421 331.31128675 103.1796875 330.63671875 C100.93746336 329.35617088 98.69281526 328.07985426 96.4453125 326.80859375 C90.57548276 323.45229312 84.91062733 320.01382688 79.71875 315.66015625 C79.19410156 315.2321875 78.66945313 314.80421875 78.12890625 314.36328125 C74.74098434 310.27149745 74.46947762 305.31844271 74.47392273 300.20176697 C74.46998505 298.92179337 74.46604736 297.64181976 74.46199036 296.32305908 C74.46759847 294.91711367 74.47335602 293.51116886 74.47924805 292.10522461 C74.47813438 290.61493331 74.47607535 289.12464247 74.47314453 287.63435364 C74.46843189 284.43248484 74.46953232 281.23068943 74.47492027 278.02882195 C74.4825404 272.96517032 74.47186373 267.90165961 74.4577179 262.83802795 C74.42000507 248.44173614 74.40180239 234.04550895 74.41333008 219.64916992 C74.41954418 211.69254717 74.40798079 203.73615251 74.37688476 195.7795859 C74.35822276 190.74629459 74.36155505 185.71364899 74.38105237 180.6803683 C74.38793164 177.54975781 74.37398279 174.41949801 74.35410309 171.28895378 C74.34905412 169.8381388 74.35254526 168.38726499 74.36523628 166.93649673 C74.38133818 164.95490518 74.36376296 162.97312551 74.3445282 160.99156189 C74.34427659 159.3288143 74.34427659 159.3288143 74.34401989 157.63247585 C73.39158664 153.10493331 70.53904163 150.85633485 66.77197266 148.38085938 C66.1485498 148.07083984 65.52512695 147.76082031 64.8828125 147.44140625 C64.1606958 147.07362061 63.4385791 146.70583496 62.69458008 146.3269043 C61.91880615 145.94187744 61.14303223 145.55685059 60.34375 145.16015625 C52.96930781 141.3922088 45.72197081 137.45532011 38.53125 133.34765625 C29.31975243 128.09724346 20.03646645 122.99526093 10.69848633 117.97338867 C9.75642334 117.46654541 8.81436035 116.95970215 7.84375 116.4375 C6.95429688 115.96296387 6.06484375 115.48842773 5.1484375 114.99951172 C3.03139406 113.83250003 1.00937093 112.5820226 -1.03125 111.2890625 C-4.92723487 109.33638739 -6.97050156 109.04634316 -11.28125 109.66015625 C-14.27007248 110.79361657 -16.99850033 112.28245187 -19.78125 113.84765625 C-20.60020752 114.29326904 -21.41916504 114.73888184 -22.26293945 115.19799805 C-24.94656943 116.66667508 -27.61537898 118.15950353 -30.28125 119.66015625 C-31.18536621 120.16836914 -32.08948242 120.67658203 -33.02099609 121.20019531 C-36.80205423 123.33016254 -40.57958026 125.46610899 -44.3503418 127.61425781 C-52.51300324 132.2583779 -60.75539225 136.74454109 -69.0378418 141.17114258 C-73.65718897 143.65025476 -78.25301996 146.16698529 -82.79296875 148.7890625 C-83.58533936 149.24482666 -84.37770996 149.70059082 -85.1940918 150.17016602 C-87.55116199 151.85284228 -88.77694256 153.17951035 -90.28125 155.66015625 C-90.730794 158.60269319 -90.730794 158.60269319 -90.65979004 161.90927124 C-90.66799271 163.19346451 -90.67619537 164.47765778 -90.68464661 165.80076599 C-90.67868821 167.22183335 -90.67246912 168.64289964 -90.66601562 170.06396484 C-90.6701212 171.56219394 -90.67558198 173.06041985 -90.68229675 174.55863953 C-90.69402274 177.7840312 -90.69650575 181.00925176 -90.69194031 184.2346611 C-90.68513294 189.33626797 -90.70099502 194.43764957 -90.72033691 199.53921509 C-90.75820683 210.37118332 -90.77099192 221.20313197 -90.78125 232.03515625 C-90.79232298 243.7222506 -90.80768545 255.40924132 -90.85196257 267.09626448 C-90.87031161 272.16593178 -90.87421365 277.23534182 -90.86702728 282.3050344 C-90.86550399 285.46183161 -90.87629852 288.61850048 -90.89040565 291.77526283 C-90.89440384 293.23694309 -90.89329089 294.69864782 -90.88663292 296.16031837 C-90.87822869 298.15922642 -90.88999809 300.15818868 -90.90270996 302.15707397 C-90.90342247 303.27462255 -90.90413498 304.39217113 -90.90486908 305.54358482 C-91.42042586 309.81258321 -92.87323124 313.22499496 -95.90234375 316.3125 C-101.80729152 320.49040928 -107.98777861 324.10030293 -114.28125 327.66015625 C-116.02086433 328.65381786 -117.76047175 329.64749198 -119.49954224 330.6421051 C-120.68446131 331.31952933 -121.86974546 331.99631537 -123.0553894 332.67247009 C-128.86143616 335.98431789 -134.6362989 339.34843823 -140.40625 342.72265625 C-142.36065792 343.86461613 -144.31508507 345.0065431 -146.26953125 346.1484375 C-147.73060303 347.00236084 -147.73060303 347.00236084 -149.22119141 347.87353516 C-152.48302094 349.7779606 -155.74713173 351.67843064 -159.01171875 353.578125 C-160.11306152 354.21935303 -161.2144043 354.86058105 -162.34912109 355.52124023 C-164.46753643 356.75451182 -166.58633454 357.98712619 -168.70556641 359.21899414 C-169.6547998 359.77192139 -170.6040332 360.32484863 -171.58203125 360.89453125 C-172.41903564 361.38147461 -173.25604004 361.86841797 -174.1184082 362.37011719 C-175.87100957 363.41546606 -177.58330345 364.52819188 -179.28125 365.66015625 C-183.44307204 366.1996517 -185.4921197 366.21320045 -188.96855068 363.77682209 C-192.26810699 359.33023695 -191.97472786 355.76166089 -191.90943909 350.35600281 C-191.92008067 348.78385198 -191.92008067 348.78385198 -191.93093723 347.17994052 C-191.94856209 343.662151 -191.93038826 340.14545977 -191.91235352 336.62768555 C-191.91749067 334.10793554 -191.9247704 331.58818913 -191.93403625 329.06845093 C-191.95065941 322.93079462 -191.94389586 316.79354649 -191.92594803 310.65590557 C-191.91192054 305.66608168 -191.90802954 300.67634418 -191.9113903 295.68650246 C-191.91186775 294.97622185 -191.91234519 294.26594125 -191.9128371 293.53413698 C-191.91386344 292.09116148 -191.9149188 290.648186 -191.91600286 289.20521054 C-191.92457167 276.4434654 -191.90789126 263.68187379 -191.87817383 250.92016602 C-191.84935418 238.54379826 -191.84224399 226.16765186 -191.85766602 213.79125977 C-191.87444042 200.31113306 -191.87844835 186.83111148 -191.86095566 173.35098201 C-191.85911131 171.91240713 -191.85727658 170.47383224 -191.85545158 169.03525734 C-191.85408345 167.97359378 -191.85408345 167.97359378 -191.85268768 166.89048248 C-191.84708857 161.90981111 -191.85038378 156.92919114 -191.85699654 151.94852257 C-191.8655517 145.23845506 -191.85252706 138.52875347 -191.82514763 131.81872177 C-191.81826377 129.35648736 -191.81816579 126.89422319 -191.82536316 124.43198967 C-191.83405924 121.06939161 -191.81809728 117.70777656 -191.7959137 114.34526062 C-191.80415446 113.37200024 -191.81239523 112.39873986 -191.82088572 111.39598674 C-191.74694304 105.31818214 -190.71425037 100.74708902 -187.28125 95.66015625 C-185.16674805 93.59814453 -185.16674805 93.59814453 -182.85546875 92.10546875 C-181.9742334 91.53602539 -181.09299805 90.96658203 -180.18505859 90.37988281 C-174.91042585 87.2560798 -169.52817421 84.36988571 -164.09375 81.53515625 C-161.59278577 80.21650362 -159.0949216 78.89204826 -156.59765625 77.56640625 C-155.66431961 77.07169327 -155.66431961 77.07169327 -154.71212769 76.56698608 C-148.92697439 73.49146112 -143.22093367 70.28370675 -137.53125 67.03515625 C-129.83256895 62.64414106 -122.08603839 58.35973495 -114.28125 54.16015625 C-106.5030681 49.97257906 -98.77365156 45.71291176 -91.09375 41.34765625 C-79.44043737 34.72467348 -67.70858802 28.24921933 -55.96330261 21.79148865 C-52.07162834 19.65025118 -48.18589081 17.49861991 -44.30435181 15.33906555 C-41.67903283 13.87848271 -39.05221539 12.42060561 -36.425354 10.96279907 C-35.18125089 10.27139236 -33.93785954 9.57870307 -32.69525146 8.88461304 C-9.69615983 -3.95926526 -9.69615983 -3.95926526 0 0 Z " fill="#35464E" transform="translate(191.28125,634.33984375)"/>
<path d="M0 0 C6.00424579 1.62573433 11.03686224 4.71786855 16.375 7.8125 C24.63317396 12.5427174 32.93296055 17.1756474 41.3125 21.6875 C50.40264709 26.58821821 59.45182985 31.55395125 68.46875 36.58789062 C73.58011811 39.43937145 78.69646439 42.28190465 83.8125 45.125 C85.52723511 46.07802002 85.52723511 46.07802002 87.27661133 47.05029297 C95.07075214 51.38039379 102.87401321 55.69375179 110.6824646 59.99798584 C114.30822326 61.99688034 117.93311759 63.99734207 121.55802917 65.99777222 C124.60312827 67.67810497 127.64872496 69.35752348 130.6953125 71.03515625 C134.29889734 73.01978761 137.89950161 75.00977476 141.5 77 C142.56669922 77.58652344 143.63339844 78.17304687 144.73242188 78.77734375 C150.21292242 81.81174518 155.65309617 84.91275711 161.03125 88.125 C162.07861328 88.74632812 163.12597656 89.36765625 164.20507812 90.0078125 C168.72028664 93.22620012 171.31063897 96.74668575 173 102 C173.18114812 104.57958646 173.26179662 107.04749735 173.24050903 109.62458801 C173.24221788 110.38431732 173.24392673 111.14404663 173.24568737 111.92679805 C173.24897695 114.46797813 173.23798739 117.00889314 173.22705078 119.55004883 C173.22648655 121.3734232 173.22680346 123.19679802 173.22793579 125.02017212 C173.22850985 129.96810514 173.21674691 134.91594129 173.20278788 139.86385179 C173.19028939 145.03550619 173.18911071 150.20716278 173.18673706 155.37882996 C173.18051971 165.17119983 173.16410541 174.96352507 173.14403808 184.75587529 C173.12168705 195.90450323 173.11068765 207.05313329 173.10064721 218.20177805 C173.07973942 241.13454345 173.04455845 264.06726923 173 287 C170.67205221 284.11673475 168.46528121 281.31453659 166.58203125 278.12109375 C165.92158813 277.00976074 165.92158813 277.00976074 165.24780273 275.87597656 C164.77415283 275.0712793 164.30050293 274.26658203 163.8125 273.4375 C162.73782437 271.6284039 161.6622527 269.81983987 160.5859375 268.01171875 C160.00811523 267.04024902 159.43029297 266.0687793 158.83496094 265.06787109 C155.91892322 260.19254779 152.95762326 255.34493689 150.00057983 250.49441528 C143.42615159 239.70638908 136.93551893 228.87142143 130.5 218 C124.51088255 207.88430398 118.48435092 197.79359307 112.375 187.75 C112.02725525 187.1782605 111.6795105 186.606521 111.32122803 186.01745605 C108.88314193 182.01022062 106.44195666 178.00487759 104 174 C101.20614393 169.41799748 98.41376307 164.83510446 95.625 160.25 C95.27741638 159.67858276 94.92983276 159.10716553 94.57171631 158.51843262 C88.40668597 148.37645734 82.34147691 138.17682551 76.29455566 127.96411133 C70.70593289 118.52789094 65.07444585 109.11972119 59.375 99.75 C59.02725525 99.1782605 58.6795105 98.606521 58.32122803 98.01745605 C55.88314193 94.01022062 53.44195666 90.00487759 51 86 C41.23341295 69.98252258 31.54431784 53.92376696 21.98754883 37.7800293 C18.16613217 31.3258654 14.33515424 24.87811963 10.46484375 18.453125 C10.10924377 17.86250778 9.7536438 17.27189056 9.38726807 16.66337585 C7.71682464 13.89000026 6.04358253 11.11836441 4.36669922 8.34887695 C3.78807129 7.38941162 3.20944336 6.42994629 2.61328125 5.44140625 C2.10579346 4.60295166 1.59830566 3.76449707 1.07543945 2.90063477 C0 1 0 1 0 0 Z " fill="#2E7D32" transform="translate(594,638)"/>
<path d="M0 0 C3.00666047 3.69331549 5.53645559 7.39285166 7.94921875 11.50390625 C8.31884735 12.13063736 8.68847595 12.75736847 9.06930542 13.40309143 C9.86398967 14.75111498 10.65701085 16.10012007 11.44851685 17.45001221 C13.57433695 21.07457239 15.71342381 24.69129122 17.8515625 28.30859375 C18.28588089 29.04396362 18.72019928 29.7793335 19.16767883 30.5369873 C23.2452034 37.43286186 27.39317235 44.28435092 31.5625 51.125 C37.79660124 61.35737263 43.98110311 71.61819152 50.13653564 81.89807129 C55.19031087 90.33651488 60.2739801 98.75578823 65.390625 107.15625 C72.23963073 118.40088628 78.99395957 129.69834071 85.70068359 141.02838135 C92.76648579 152.96182419 99.93942839 164.82693678 107.15234375 176.671875 C110.93701528 182.88842298 114.68346622 189.12715715 118.41943359 195.37304688 C121.89501433 201.17620287 125.40447757 206.95814679 128.92260742 212.7355957 C136.32468856 224.89132251 143.63938378 237.09518658 150.88909912 249.34240723 C158.16005097 261.6230475 165.5374108 273.83462748 173 286 C172.34 286.33 171.68 286.66 171 287 C168.57104492 285.89868164 168.57104492 285.89868164 165.48046875 284.16015625 C164.32788574 283.51747803 163.17530273 282.8747998 161.98779297 282.21264648 C160.72098739 281.49600391 159.45422425 280.77928632 158.1875 280.0625 C156.87693575 279.32866683 155.56589306 278.59568753 154.25439453 277.86352539 C151.5240209 276.33841207 148.79576307 274.80960768 146.06884766 273.27832031 C140.45352295 270.12902003 134.81178072 267.02795391 129.17050171 263.92547607 C113.64199982 255.38090702 98.15514181 246.76116412 82.66601562 238.14550781 C79.31922771 236.28411406 75.97219467 234.42316221 72.625 232.5625 C71.51914551 231.94769775 70.41329102 231.33289551 69.27392578 230.69946289 C62.79212389 227.09851393 56.30348723 223.51032007 49.80740356 219.93522644 C44.9479819 217.26071149 40.09296144 214.57831114 35.23995972 211.89216614 C31.24643323 209.68347664 27.24181502 207.4958153 23.234375 205.3125 C21.15593816 204.16723241 19.07779686 203.02142826 17 201.875 C16.05672852 201.36694824 15.11345703 200.85889648 14.14160156 200.33544922 C7.75621959 196.78630992 2.73702391 193.04594803 0 186 C-0.18486468 183.44818967 -0.26137454 181.00806458 -0.24050903 178.45770264 C-0.24221788 177.6947442 -0.24392673 176.93178576 -0.24568737 176.14570737 C-0.24898323 173.58760278 -0.23797703 171.02976014 -0.22705078 168.47167969 C-0.22648669 166.63860073 -0.22680319 164.80552132 -0.22793579 162.97244263 C-0.22851038 157.99345996 -0.21673889 153.01457337 -0.20278788 148.03561306 C-0.1902982 142.83325625 -0.18911141 137.63089732 -0.18673706 132.42852783 C-0.18051711 122.57591766 -0.16409931 112.7233518 -0.14403808 102.87076116 C-0.12169512 91.65444302 -0.11068968 80.43812278 -0.10064721 69.22178793 C-0.07973354 46.14783404 -0.04454753 23.0739195 0 0 Z " fill="#2E7D32" transform="translate(400,745)"/>
<path d="M0 0 C0.33 0 0.66 0 1 0 C1 59.73 1 119.46 1 181 C-3.4964316 175.37946051 -3.4964316 175.37946051 -5.41796875 172.12109375 C-5.85826416 171.38020508 -6.29855957 170.63931641 -6.75219727 169.87597656 C-7.22584717 169.0712793 -7.69949707 168.26658203 -8.1875 167.4375 C-9.26217563 165.6284039 -10.3377473 163.81983987 -11.4140625 162.01171875 C-11.99188477 161.04024902 -12.56970703 160.0687793 -13.16503906 159.06787109 C-16.08230305 154.19049759 -19.04494178 149.34091135 -22.00326538 144.4883728 C-28.42723073 133.94562199 -34.7934608 123.36910234 -41.10543823 112.75891113 C-41.9446967 111.34826454 -42.78463063 109.93801957 -43.62527466 108.52819824 C-44.80192293 106.55398662 -45.97563448 104.57806028 -47.1484375 102.6015625 C-47.82052246 101.47057129 -48.49260742 100.33958008 -49.18505859 99.17431641 C-49.78398926 98.12679199 -50.38291992 97.07926758 -51 96 C-51.63131836 94.98905273 -52.26263672 93.97810547 -52.91308594 92.93652344 C-54 90 -54 90 -53.08154297 87.25634766 C-52.17106201 85.8494165 -52.17106201 85.8494165 -51.2421875 84.4140625 C-50.56341553 83.33495605 -49.88464355 82.25584961 -49.18530273 81.14404297 C-48.41524261 79.97100187 -47.64514044 78.79798837 -46.875 77.625 C-46.08973142 76.3899581 -45.30731403 75.15309927 -44.52758789 73.91455078 C-43.29732694 71.96090069 -42.0654164 70.00853273 -40.8249054 68.06137085 C-36.60323655 61.42885293 -32.60657892 54.67076453 -28.62405396 47.8928833 C-21.52879311 35.82650545 -14.28627263 23.85747057 -6.89819336 11.96826172 C-6.28081299 10.9732666 -5.66343262 9.97827148 -5.02734375 8.953125 C-4.48843506 8.08848633 -3.94952637 7.22384766 -3.39428711 6.33300781 C-2.15519032 4.25967408 -1.04403265 2.17671848 0 0 Z " fill="#378D3B" transform="translate(766,744)"/>
<path d="M0 0 C3.06724414 3.83405517 5.48835655 7.31089674 7.94921875 11.50390625 C8.31898331 12.13086395 8.68874786 12.75782166 9.06971741 13.40377808 C9.86454002 14.75202989 10.6576988 16.10126371 11.44934082 17.4513855 C13.57102629 21.06895021 15.70588023 24.67873139 17.83984375 28.2890625 C18.27354279 29.02340012 18.70724182 29.75773773 19.15408325 30.514328 C23.29789021 37.52226672 27.51294115 44.48566186 31.75 51.4375 C39.55836063 64.25712805 47.29345556 77.11894005 55 90 C51.3454376 96.3147739 47.67879428 102.60188681 43.75 108.75 C38.64976093 116.81949324 33.79786745 125.03500463 28.9375 133.25 C22.85146668 143.53138969 16.7473275 153.80090187 10.55935669 164.0213623 C9.81537832 165.25063371 9.0724265 166.48052703 8.33053589 167.71105957 C7.30534281 169.41072101 6.27582714 171.10777294 5.24609375 172.8046875 C4.66529053 173.76358887 4.0844873 174.72249023 3.48608398 175.71044922 C2 178 2 178 0 180 C0 120.6 0 61.2 0 0 Z " fill="#378D3B" transform="translate(400,745)"/>
<path d="M0 0 C3.05786133 1.35107422 3.05786133 1.35107422 6.08203125 3.0546875 C7.17837891 3.66957031 8.27472656 4.28445313 9.40429688 4.91796875 C10.52900391 5.56378906 11.65371094 6.20960938 12.8125 6.875 C13.95654297 7.51308594 15.10058594 8.15117188 16.27929688 8.80859375 C24.73124208 13.59686312 24.73124208 13.59686312 27 17 C27.41013383 21.40842171 27.37160426 25.82607883 27.37060547 30.2512207 C27.37497837 32.42674054 27.41130423 34.60022977 27.44921875 36.77539062 C27.45508743 38.16145141 27.45905648 39.54752181 27.4609375 40.93359375 C27.46915527 42.19228271 27.47737305 43.45097168 27.48583984 44.74780273 C26.90110873 48.66197519 26.1142653 49.6359526 23 52 C19.38820715 54.29556881 15.63234563 56.31024679 11.86450195 58.33813477 C10.06288844 59.31228996 8.27485473 60.30870707 6.48632812 61.30664062 C5.34744141 61.92345703 4.20855469 62.54027344 3.03515625 63.17578125 C1.9975415 63.74208252 0.95992676 64.30838379 -0.10913086 64.8918457 C-3.43749617 66.16770502 -4.67143818 66.16215813 -8 65 C-9.99563299 64.03634764 -11.95627262 62.99852873 -13.88671875 61.91015625 C-14.98951172 61.29076172 -16.09230469 60.67136719 -17.22851562 60.03320312 C-18.36998047 59.38287109 -19.51144531 58.73253906 -20.6875 58.0625 C-21.8519026 57.4089509 -23.01661336 56.75595052 -24.18164062 56.10351562 C-32.71777081 51.28222919 -32.71777081 51.28222919 -35 49 C-35.17502995 46.41896694 -35.23162279 43.94691837 -35.1953125 41.3671875 C-35.1924826 40.61535187 -35.18965271 39.86351624 -35.18673706 39.08889771 C-35.17552874 36.68410422 -35.15042352 34.27968119 -35.125 31.875 C-35.11497102 30.24609912 -35.10584503 28.61719242 -35.09765625 26.98828125 C-35.07558735 22.99204444 -35.04105351 18.99608506 -35 15 C-19.27734375 6.015625 -19.27734375 6.015625 -16.51904297 4.45898438 C-14.98916417 3.57290609 -13.47648717 2.6548267 -12.00048828 1.68164062 C-7.54636901 -1.21222943 -5.10895167 -1.09438766 0 0 Z " fill="#368C3A" transform="translate(1421,801)"/>
</svg>
