<?xml version="1.0" encoding="UTF-8"?>
<svg version="1.1" xmlns="http://www.w3.org/2000/svg" width="2400" height="2156">
<path d="M0 0 C0.90782227 0.12358887 1.81564453 0.24717773 2.75097656 0.37451172 C54.45196133 7.52391038 103.36544705 28.93442758 143 63 C144.06788536 63.88547317 145.13696876 64.7695028 146.20703125 65.65234375 C158.43970434 75.82741137 170.11369687 86.85470392 179.94921875 99.39453125 C182.11746217 102.14923289 184.39674569 104.78407376 186.6875 107.4375 C212.40528699 138.43378339 230.43951215 175.29741734 244 213 C244.51506104 214.39774658 244.51506104 214.39774658 245.04052734 215.82373047 C262.88073093 264.49542082 270.92677753 317.42187652 274 369 C274.04236786 369.69868195 274.08473572 370.39736389 274.12838745 371.11721802 C275.03906917 386.55620456 275.201397 401.97451386 275.1875 417.4375 C275.18689575 418.68766907 275.1862915 419.93783813 275.18566895 421.22589111 C275.15784671 442.54552832 274.65599655 463.74400702 273 485 C272.93683594 485.81762817 272.87367187 486.63525635 272.80859375 487.47766113 C262.54274343 618.91451314 262.54274343 618.91451314 250 644 C250.53262451 644.14985352 251.06524902 644.29970703 251.61401367 644.45410156 C259.96691541 646.87733066 268.13564667 649.79851073 276.3125 652.75 C277.08856598 653.02978699 277.86463196 653.30957397 278.66421509 653.59783936 C305.53714971 663.31623121 331.97283457 674.20609852 358 686 C359.00272949 686.4532666 360.00545898 686.9065332 361.03857422 687.37353516 C368.0428784 690.54560955 375.02818171 693.75718324 382 697 C382.91797363 697.42667969 383.83594727 697.85335937 384.78173828 698.29296875 C396.51081282 703.76303042 408.0573685 709.50451888 419.45556641 715.63427734 C422.15702219 717.08428153 424.86549693 718.52065123 427.57421875 719.95703125 C456.36098405 735.29941496 484.32441518 752.21519034 511 771 C511.58120605 771.40637695 512.16241211 771.81275391 512.76123047 772.23144531 C543.48884913 793.73126518 571.95646121 817.91653666 598.5 844.375 C599.43199219 845.30231934 600.36398438 846.22963867 601.32421875 847.18505859 C606.42384291 852.29664074 611.32244588 857.50067219 616 863 C617.2684375 864.44632813 617.2684375 864.44632813 618.5625 865.921875 C639.73055158 890.48224254 658.13699159 917.698593 672.05712891 947.01513672 C672.68290438 948.3324735 673.31534778 949.64666457 673.95458984 950.95751953 C706.230628 1017.42358289 707.29755836 1094.90321974 684.0090332 1164.31616211 C669.37344267 1206.09545439 645.14412971 1244.81168953 615.3359375 1277.41796875 C614.07630777 1278.81030194 612.82256949 1280.20863392 611.60620117 1281.63891602 C606.44367141 1287.68559685 600.85887753 1293.29303706 595.23022461 1298.90014648 C593.56573723 1300.5592732 591.90666553 1302.22368051 590.24804688 1303.88867188 C584.67208045 1309.46849342 579.03828481 1314.91679815 573 1320 C571.95535649 1320.90060957 570.9110673 1321.80163034 569.8671875 1322.703125 C562.06674063 1329.34266986 554.12045933 1335.75617229 546 1342 C545.40413086 1342.45955078 544.80826172 1342.91910156 544.19433594 1343.39257812 C490.61173446 1384.57471652 430.02097206 1417.36609555 368 1444 C366.98576965 1444.4360556 366.98576965 1444.4360556 365.9510498 1444.88092041 C335.93615677 1457.76513806 305.4866054 1469.38315814 274.6875 1480.25 C273.89900665 1480.52894104 273.11051331 1480.80788208 272.29812622 1481.09527588 C270.05838253 1481.8857598 267.81674315 1482.67056896 265.57421875 1483.453125 C264.92373566 1483.68266876 264.27325256 1483.91221252 263.60305786 1484.14871216 C259.11377161 1485.70355939 254.61611008 1486.89941965 250 1488 C250.10164963 1488.56121048 250.20329926 1489.12242096 250.30802917 1489.70063782 C266.0681196 1576.81929604 276.11871724 1664.32514295 225 1966 C224.33045964 1967.52071469 223.66116663 1969.04153833 222.9921875 1970.5625 C215.08159108 1988.23086847 205.23478748 2005.24063576 194 2021 C193.18547363 2022.1449292 193.18547363 2022.1449292 192.35449219 2023.31298828 C186.31683406 2031.75270752 180.30062389 2040.14821088 173.16015625 2047.69921875 C171.30470048 2049.67546369 169.53159554 2051.69006538 167.76171875 2053.7421875 C158.16067774 2064.75300162 147.6386255 2075.15912101 136 2084 C134.80173004 2084.93835111 133.60384002 2085.87718751 132.40625 2086.81640625 C93.67024222 2116.87271489 48.20508093 2133.77893557 0 2141 C-1.28729004 2141.19916016 -1.28729004 2141.19916016 -2.60058594 2141.40234375 C-92.9839545 2154.71491272 -187.46675048 2122.38112231 -312.69921875 2058.38085938 C-315.76445676 2056.54119616 -318.87707778 2054.80241381 -322 2053.0625 C-348.97172347 2037.65008659 -374.90818375 2019.99598858 -399.89453125 2001.55224609 C-402.19482237 1999.8563682 -404.50329563 1998.17199962 -406.8125 1996.48828125 C-415.79111374 1989.92708896 -424.64583463 1983.24206363 -433.34375 1976.31347656 C-435.01391997 1974.98896087 -436.6927693 1973.67634284 -438.375 1972.3671875 C-444.8190474 1967.3487167 -451.18992627 1962.24860956 -457.5 1957.0625 C-458.56637695 1956.18779053 -458.56637695 1956.18779053 -459.65429688 1955.29541016 C-463.17532457 1952.39096425 -466.64726887 1949.44786361 -470.05078125 1946.40625 C-470.68628906 1945.84284912 -471.32179688 1945.27944824 -471.9765625 1944.69897461 C-473.17273959 1943.63275452 -474.35952136 1942.55586953 -475.53515625 1941.46704102 C-477.28878365 1939.85506593 -477.28878365 1939.85506593 -480 1938 C-483.171938 1938.33556137 -484.94813117 1939.52864892 -487.28515625 1941.625 C-487.89222412 1942.16189453 -488.49929199 1942.69878906 -489.12475586 1943.25195312 C-490.08393921 1944.11723633 -490.08393921 1944.11723633 -491.0625 1945 C-492.41827451 1946.19904417 -493.7750503 1947.3969571 -495.1328125 1948.59375 C-495.79571289 1949.18027344 -496.45861328 1949.76679687 -497.14160156 1950.37109375 C-500.38878637 1953.21728622 -503.73697243 1955.93339682 -507.09375 1958.6484375 C-509.24949806 1960.39273902 -511.39376364 1962.14766752 -513.53125 1963.9140625 C-523.27331098 1971.9386894 -533.28510627 1979.55242905 -543.41796875 1987.07519531 C-546.00632481 1989.0047149 -548.58292868 1990.94892207 -551.15625 1992.8984375 C-561.26102011 2000.54750899 -571.47426038 2007.9426401 -582 2015 C-582.89734863 2015.60457031 -583.79469727 2016.20914062 -584.71923828 2016.83203125 C-612.69115004 2035.66883585 -641.24823492 2053.10304155 -671 2069 C-671.90508301 2069.48678223 -672.81016602 2069.97356445 -673.74267578 2070.47509766 C-745.63968717 2109.06173419 -825.55988375 2136.28634842 -907.375 2141.25 C-908.38024216 2141.31179947 -908.38024216 2141.31179947 -909.40579224 2141.37484741 C-988.08330659 2146.06844549 -1070.41204735 2126.12878887 -1130.8046875 2073.55859375 C-1132.46834902 2072.06433241 -1134.12389646 2070.56096639 -1135.76953125 2069.046875 C-1137.83296274 2067.15328813 -1139.93574581 2065.32173836 -1142.0625 2063.5 C-1163.50110311 2044.78444527 -1180.99500681 2020.64629219 -1195 1996 C-1195.44811035 1995.22124512 -1195.8962207 1994.44249023 -1196.35791016 1993.64013672 C-1242.50299898 1913.07752648 -1256.27768918 1817.31887263 -1256.1875 1725.6875 C-1256.18689575 1724.53903595 -1256.1862915 1723.3905719 -1256.18566895 1722.20730591 C-1256.08499293 1651.01646884 -1247.27166791 1580.86996217 -1234 1511 C-1242.04766532 1507.5424047 -1250.16121212 1504.48434782 -1258.4375 1501.625 C-1284.76675939 1492.36236189 -1310.60105704 1481.55599378 -1336 1470 C-1337.10569336 1469.49791016 -1338.21138672 1468.99582031 -1339.35058594 1468.47851562 C-1381.09753779 1449.45903013 -1421.56335569 1428.09199581 -1460 1403 C-1461.09828125 1402.28714844 -1462.1965625 1401.57429688 -1463.328125 1400.83984375 C-1478.60493474 1390.79043399 -1493.50238954 1380.14143464 -1508 1369 C-1508.60537598 1368.5349707 -1509.21075195 1368.06994141 -1509.83447266 1367.59082031 C-1517.35509521 1361.79261712 -1524.68210682 1355.8007389 -1531.8984375 1349.62890625 C-1534.824486 1347.1327295 -1537.81356752 1344.72073366 -1540.8125 1342.3125 C-1544.74117422 1339.11831705 -1548.37089272 1335.78945732 -1551.85546875 1332.1171875 C-1553.70903124 1330.28725878 -1555.60287605 1328.60476055 -1557.578125 1326.91015625 C-1562.81027262 1322.36624239 -1567.67487184 1317.47106018 -1572.5625 1312.5625 C-1573.46935547 1311.65951172 -1574.37621094 1310.75652344 -1575.31054688 1309.82617188 C-1579.88552233 1305.24456121 -1584.32889906 1300.6108321 -1588.54467773 1295.69604492 C-1590.39447457 1293.54027599 -1592.32278271 1291.46155415 -1594.25 1289.375 C-1599.35676166 1283.71334404 -1604.0198815 1277.74555735 -1608.67089844 1271.70996094 C-1609.85941663 1270.18086809 -1611.07266253 1268.67106997 -1612.2890625 1267.1640625 C-1664.29659937 1201.93124134 -1694.17718003 1118.81440694 -1685.23046875 1035.02392578 C-1684.64305853 1030.64659002 -1683.88207482 1026.32704081 -1683 1022 C-1682.69400879 1020.46085937 -1682.69400879 1020.46085937 -1682.38183594 1018.890625 C-1676.57890582 990.37433375 -1666.59762013 963.69968978 -1653 938 C-1652.4419165 936.93966553 -1652.4419165 936.93966553 -1651.87255859 935.85791016 C-1639.08767643 911.7406106 -1623.1013954 889.40471667 -1605 869 C-1603.77024445 867.58384449 -1602.54098098 866.16726131 -1601.3125 864.75 C-1600.20894021 863.49946418 -1599.10468254 862.24954412 -1598 861 C-1597.4009082 860.31607178 -1596.80181641 859.63214355 -1596.18457031 858.92749023 C-1590.10601762 852.06842582 -1583.71528101 845.56172664 -1577.22485352 839.09448242 C-1575.4332405 837.3082533 -1573.64706945 835.51670653 -1571.86132812 833.72460938 C-1566.07697851 827.93654708 -1560.26411211 822.27359104 -1554 817 C-1552.88152616 816.02751914 -1551.76431052 815.05358907 -1550.6484375 814.078125 C-1543.23130784 807.65368067 -1535.66174884 801.48102924 -1527.89990234 795.47900391 C-1525.897451 793.92016938 -1523.910866 792.34259861 -1521.92578125 790.76171875 C-1457.39236017 739.59116768 -1381.5546332 700.117679 -1252.42285156 648.44824219 C-1251.30491211 648.04766602 -1250.18697266 647.64708984 -1249.03515625 647.234375 C-1248.0800415 646.89631836 -1247.12492676 646.55826172 -1246.14086914 646.20996094 C-1242.02444487 644.62418568 -1238.01675255 642.82123208 -1234 641 C-1234.30852905 639.34798584 -1234.30852905 639.34798584 -1234.62329102 637.66259766 C-1242.45881531 595.50854753 -1249.01533992 553.10573655 -1252.78710938 510.37921143 C-1253.00100214 507.98880033 -1253.22624486 505.59965945 -1253.453125 503.21044922 C-1258.36659193 450.52416565 -1259.29680842 394.83741443 -1253.25323486 342.20715332 C-1252.98781361 339.89378541 -1252.73358954 337.57933906 -1252.47998047 335.26464844 C-1249.88717672 311.94848915 -1245.97593262 288.92261633 -1241 266 C-1240.60240479 264.16550293 -1240.60240479 264.16550293 -1240.19677734 262.29394531 C-1229.46847682 214.01322987 -1210.84768806 164.41681297 -1182 124 C-1181.49210937 123.28602051 -1180.98421875 122.57204102 -1180.4609375 121.83642578 C-1173.45438158 112.02844724 -1166.30698792 102.74419782 -1158 94 C-1156.868134 92.69341643 -1155.74269848 91.38122338 -1154.625 90.0625 C-1146.52919819 80.78843595 -1137.67488693 72.59609366 -1128 65 C-1126.93106658 64.13041001 -1125.86340867 63.25925032 -1124.796875 62.38671875 C-1084.89814866 30.00581321 -1035.39910585 11.01838179 -985 3 C-983.97293945 2.83483887 -982.94587891 2.66967773 -981.88769531 2.49951172 C-871.13804509 -14.37645925 -756.34112627 28.59033822 -662.65087891 84.42626953 C-660.21714742 85.87108747 -657.77415996 87.29773644 -655.32421875 88.71484375 C-645.33927009 94.4982051 -635.62783977 100.64151307 -626 107 C-625.35820801 107.4228125 -624.71641602 107.845625 -624.05517578 108.28125 C-603.52976263 121.82030119 -583.40680461 135.89483106 -564 151 C-562.41294567 152.21432216 -560.82588186 153.42863272 -559.23779297 154.64160156 C-553.317014 159.1695724 -547.47554435 163.78982111 -541.66772461 168.46166992 C-538.55870298 170.96082805 -535.44040343 173.44495756 -532.2890625 175.890625 C-526.12797403 180.67217981 -520.17085779 185.53597041 -514.42578125 190.8203125 C-511.84872426 193.13592892 -509.19417609 195.32205066 -506.5 197.5 C-501.16214258 201.81749665 -496.05765303 206.35924678 -491 211 C-486.53951028 209.58075327 -483.67183036 207.13360144 -480.375 203.9375 C-474.7951341 198.67621224 -468.97952998 193.80436224 -463 189 C-461.22825915 187.54276936 -459.45743667 186.08442146 -457.6875 184.625 C-451.84402482 179.8462258 -445.91647126 175.1801675 -439.96582031 170.53613281 C-437.89882862 168.92094259 -435.83609217 167.30041162 -433.7734375 165.6796875 C-423.75851593 157.82862718 -413.60726937 150.18668812 -403.32177734 142.69384766 C-401.09127349 141.06658838 -398.86745137 139.43056524 -396.64453125 137.79296875 C-384.3664811 128.78943531 -371.72409099 120.35734855 -359 112 C-357.7941626 111.20650146 -357.7941626 111.20650146 -356.56396484 110.39697266 C-329.88004215 92.86946904 -302.27967156 76.80816908 -274 62 C-273.0212793 61.48727539 -272.04255859 60.97455078 -271.03417969 60.44628906 C-192.05542242 19.36664442 -104.1860178 -6.88387209 0 0 Z " fill="#53C1DE" transform="translate(1693,9)"/>
<path d="M0 0 C0.90782227 0.12358887 1.81564453 0.24717773 2.75097656 0.37451172 C54.45196133 7.52391038 103.36544705 28.93442758 143 63 C144.06788536 63.88547317 145.13696876 64.7695028 146.20703125 65.65234375 C158.43970434 75.82741137 170.11369687 86.85470392 179.94921875 99.39453125 C182.11746217 102.14923289 184.39674569 104.78407376 186.6875 107.4375 C212.40528699 138.43378339 230.43951215 175.29741734 244 213 C244.51506104 214.39774658 244.51506104 214.39774658 245.04052734 215.82373047 C262.88073093 264.49542082 270.92677753 317.42187652 274 369 C274.04236786 369.69868195 274.08473572 370.39736389 274.12838745 371.11721802 C275.03906917 386.55620456 275.201397 401.97451386 275.1875 417.4375 C275.18689575 418.68766907 275.1862915 419.93783813 275.18566895 421.22589111 C275.15784671 442.54552832 274.65599655 463.74400702 273 485 C272.93683594 485.81762817 272.87367187 486.63525635 272.80859375 487.47766113 C262.54274343 618.91451314 262.54274343 618.91451314 250 644 C250.53262451 644.14985352 251.06524902 644.29970703 251.61401367 644.45410156 C259.96691541 646.87733066 268.13564667 649.79851073 276.3125 652.75 C277.08856598 653.02978699 277.86463196 653.30957397 278.66421509 653.59783936 C305.53714971 663.31623121 331.97283457 674.20609852 358 686 C359.00272949 686.4532666 360.00545898 686.9065332 361.03857422 687.37353516 C368.0428784 690.54560955 375.02818171 693.75718324 382 697 C382.91797363 697.42667969 383.83594727 697.85335937 384.78173828 698.29296875 C396.51081282 703.76303042 408.0573685 709.50451888 419.45556641 715.63427734 C422.15702219 717.08428153 424.86549693 718.52065123 427.57421875 719.95703125 C456.36098405 735.29941496 484.32441518 752.21519034 511 771 C511.58120605 771.40637695 512.16241211 771.81275391 512.76123047 772.23144531 C543.48884913 793.73126518 571.95646121 817.91653666 598.5 844.375 C599.43199219 845.30231934 600.36398438 846.22963867 601.32421875 847.18505859 C606.42384291 852.29664074 611.32244588 857.50067219 616 863 C617.2684375 864.44632813 617.2684375 864.44632813 618.5625 865.921875 C639.73055158 890.48224254 658.13699159 917.698593 672.05712891 947.01513672 C672.68290438 948.3324735 673.31534778 949.64666457 673.95458984 950.95751953 C706.230628 1017.42358289 707.29755836 1094.90321974 684.0090332 1164.31616211 C669.37344267 1206.09545439 645.14412971 1244.81168953 615.3359375 1277.41796875 C614.07630777 1278.81030194 612.82256949 1280.20863392 611.60620117 1281.63891602 C606.44367141 1287.68559685 600.85887753 1293.29303706 595.23022461 1298.90014648 C593.56573723 1300.5592732 591.90666553 1302.22368051 590.24804688 1303.88867188 C584.67208045 1309.46849342 579.03828481 1314.91679815 573 1320 C571.95535649 1320.90060957 570.9110673 1321.80163034 569.8671875 1322.703125 C562.06674063 1329.34266986 554.12045933 1335.75617229 546 1342 C545.40413086 1342.45955078 544.80826172 1342.91910156 544.19433594 1343.39257812 C490.61173446 1384.57471652 430.02097206 1417.36609555 368 1444 C366.98576965 1444.4360556 366.98576965 1444.4360556 365.9510498 1444.88092041 C335.93615677 1457.76513806 305.4866054 1469.38315814 274.6875 1480.25 C273.89900665 1480.52894104 273.11051331 1480.80788208 272.29812622 1481.09527588 C270.05838253 1481.8857598 267.81674315 1482.67056896 265.57421875 1483.453125 C264.92373566 1483.68266876 264.27325256 1483.91221252 263.60305786 1484.14871216 C259.11377161 1485.70355939 254.61611008 1486.89941965 250 1488 C250.10164963 1488.56121048 250.20329926 1489.12242096 250.30802917 1489.70063782 C266.0681196 1576.81929604 276.11871724 1664.32514295 225 1966 C224.33045964 1967.52071469 223.66116663 1969.04153833 222.9921875 1970.5625 C215.08159108 1988.23086847 205.23478748 2005.24063576 194 2021 C193.18547363 2022.1449292 193.18547363 2022.1449292 192.35449219 2023.31298828 C186.31683406 2031.75270752 180.30062389 2040.14821088 173.16015625 2047.69921875 C171.30470048 2049.67546369 169.53159554 2051.69006538 167.76171875 2053.7421875 C158.16067774 2064.75300162 147.6386255 2075.15912101 136 2084 C134.80173004 2084.93835111 133.60384002 2085.87718751 132.40625 2086.81640625 C93.67024222 2116.87271489 48.20508093 2133.77893557 0 2141 C-1.28729004 2141.19916016 -1.28729004 2141.19916016 -2.60058594 2141.40234375 C-92.9839545 2154.71491272 -187.46675048 2122.38112231 -312.69921875 2058.38085938 C-315.76445676 2056.54119616 -318.87707778 2054.80241381 -322 2053.0625 C-348.97172347 2037.65008659 -374.90818375 2019.99598858 -399.89453125 2001.55224609 C-402.19482237 1999.8563682 -404.50329563 1998.17199962 -406.8125 1996.48828125 C-415.79111374 1989.92708896 -424.64583463 1983.24206363 -433.34375 1976.31347656 C-435.01391997 1974.98896087 -436.6927693 1973.67634284 -438.375 1972.3671875 C-444.8190474 1967.3487167 -451.18992627 1962.24860956 -457.5 1957.0625 C-458.56637695 1956.18779053 -458.56637695 1956.18779053 -459.65429688 1955.29541016 C-463.17532457 1952.39096425 -466.64726887 1949.44786361 -470.05078125 1946.40625 C-470.68628906 1945.84284912 -471.32179688 1945.27944824 -471.9765625 1944.69897461 C-473.17273959 1943.63275452 -474.35952136 1942.55586953 -475.53515625 1941.46704102 C-477.28878365 1939.85506593 -477.28878365 1939.85506593 -480 1938 C-483.171938 1938.33556137 -484.94813117 1939.52864892 -487.28515625 1941.625 C-487.89222412 1942.16189453 -488.49929199 1942.69878906 -489.12475586 1943.25195312 C-490.08393921 1944.11723633 -490.08393921 1944.11723633 -491.0625 1945 C-492.41827451 1946.19904417 -493.7750503 1947.3969571 -495.1328125 1948.59375 C-495.79571289 1949.18027344 -496.45861328 1949.76679687 -497.14160156 1950.37109375 C-500.38878637 1953.21728622 -503.73697243 1955.93339682 -507.09375 1958.6484375 C-509.24949806 1960.39273902 -511.39376364 1962.14766752 -513.53125 1963.9140625 C-523.27331098 1971.9386894 -533.28510627 1979.55242905 -543.41796875 1987.07519531 C-546.00632481 1989.0047149 -548.58292868 1990.94892207 -551.15625 1992.8984375 C-561.26102011 2000.54750899 -571.47426038 2007.9426401 -582 2015 C-582.89734863 2015.60457031 -583.79469727 2016.20914062 -584.71923828 2016.83203125 C-612.69115004 2035.66883585 -641.24823492 2053.10304155 -671 2069 C-671.90508301 2069.48678223 -672.81016602 2069.97356445 -673.74267578 2070.47509766 C-745.63968717 2109.06173419 -825.55988375 2136.28634842 -907.375 2141.25 C-908.38024216 2141.31179947 -908.38024216 2141.31179947 -909.40579224 2141.37484741 C-988.08330659 2146.06844549 -1070.41204735 2126.12878887 -1130.8046875 2073.55859375 C-1132.46834902 2072.06433241 -1134.12389646 2070.56096639 -1135.76953125 2069.046875 C-1137.83296274 2067.15328813 -1139.93574581 2065.32173836 -1142.0625 2063.5 C-1163.50110311 2044.78444527 -1180.99500681 2020.64629219 -1195 1996 C-1195.44811035 1995.22124512 -1195.8962207 1994.44249023 -1196.35791016 1993.64013672 C-1242.50299898 1913.07752648 -1256.27768918 1817.31887263 -1256.1875 1725.6875 C-1256.18689575 1724.53903595 -1256.1862915 1723.3905719 -1256.18566895 1722.20730591 C-1256.08499293 1651.01646884 -1247.27166791 1580.86996217 -1234 1511 C-1242.04766532 1507.5424047 -1250.16121212 1504.48434782 -1258.4375 1501.625 C-1284.76675939 1492.36236189 -1310.60105704 1481.55599378 -1336 1470 C-1337.10569336 1469.49791016 -1338.21138672 1468.99582031 -1339.35058594 1468.47851562 C-1381.09753779 1449.45903013 -1421.56335569 1428.09199581 -1460 1403 C-1461.09828125 1402.28714844 -1462.1965625 1401.57429688 -1463.328125 1400.83984375 C-1478.60493474 1390.79043399 -1493.50238954 1380.14143464 -1508 1369 C-1508.60537598 1368.5349707 -1509.21075195 1368.06994141 -1509.83447266 1367.59082031 C-1517.35509521 1361.79261712 -1524.68210682 1355.8007389 -1531.8984375 1349.62890625 C-1534.824486 1347.1327295 -1537.81356752 1344.72073366 -1540.8125 1342.3125 C-1544.74117422 1339.11831705 -1548.37089272 1335.78945732 -1551.85546875 1332.1171875 C-1553.70903124 1330.28725878 -1555.60287605 1328.60476055 -1557.578125 1326.91015625 C-1562.81027262 1322.36624239 -1567.67487184 1317.47106018 -1572.5625 1312.5625 C-1573.46935547 1311.65951172 -1574.37621094 1310.75652344 -1575.31054688 1309.82617188 C-1579.88552233 1305.24456121 -1584.32889906 1300.6108321 -1588.54467773 1295.69604492 C-1590.39447457 1293.54027599 -1592.32278271 1291.46155415 -1594.25 1289.375 C-1599.35676166 1283.71334404 -1604.0198815 1277.74555735 -1608.67089844 1271.70996094 C-1609.85941663 1270.18086809 -1611.07266253 1268.67106997 -1612.2890625 1267.1640625 C-1664.29659937 1201.93124134 -1694.17718003 1118.81440694 -1685.23046875 1035.02392578 C-1684.64305853 1030.64659002 -1683.88207482 1026.32704081 -1683 1022 C-1682.69400879 1020.46085937 -1682.69400879 1020.46085937 -1682.38183594 1018.890625 C-1676.57890582 990.37433375 -1666.59762013 963.69968978 -1653 938 C-1652.4419165 936.93966553 -1652.4419165 936.93966553 -1651.87255859 935.85791016 C-1639.08767643 911.7406106 -1623.1013954 889.40471667 -1605 869 C-1603.77024445 867.58384449 -1602.54098098 866.16726131 -1601.3125 864.75 C-1600.20894021 863.49946418 -1599.10468254 862.24954412 -1598 861 C-1597.4009082 860.31607178 -1596.80181641 859.63214355 -1596.18457031 858.92749023 C-1590.10601762 852.06842582 -1583.71528101 845.56172664 -1577.22485352 839.09448242 C-1575.4332405 837.3082533 -1573.64706945 835.51670653 -1571.86132812 833.72460938 C-1566.07697851 827.93654708 -1560.26411211 822.27359104 -1554 817 C-1552.88152616 816.02751914 -1551.76431052 815.05358907 -1550.6484375 814.078125 C-1543.23130784 807.65368067 -1535.66174884 801.48102924 -1527.89990234 795.47900391 C-1525.897451 793.92016938 -1523.910866 792.34259861 -1521.92578125 790.76171875 C-1457.39236017 739.59116768 -1381.5546332 700.117679 -1252.42285156 648.44824219 C-1251.30491211 648.04766602 -1250.18697266 647.64708984 -1249.03515625 647.234375 C-1248.0800415 646.89631836 -1247.12492676 646.55826172 -1246.14086914 646.20996094 C-1242.02444487 644.62418568 -1238.01675255 642.82123208 -1234 641 C-1234.30852905 639.34798584 -1234.30852905 639.34798584 -1234.62329102 637.66259766 C-1242.45881531 595.50854753 -1249.01533992 553.10573655 -1252.78710938 510.37921143 C-1253.00100214 507.98880033 -1253.22624486 505.59965945 -1253.453125 503.21044922 C-1258.36659193 450.52416565 -1259.29680842 394.83741443 -1253.25323486 342.20715332 C-1252.98781361 339.89378541 -1252.73358954 337.57933906 -1252.47998047 335.26464844 C-1249.88717672 311.94848915 -1245.97593262 288.92261633 -1241 266 C-1240.60240479 264.16550293 -1240.60240479 264.16550293 -1240.19677734 262.29394531 C-1229.46847682 214.01322987 -1210.84768806 164.41681297 -1182 124 C-1181.49210937 123.28602051 -1180.98421875 122.57204102 -1180.4609375 121.83642578 C-1173.45438158 112.02844724 -1166.30698792 102.74419782 -1158 94 C-1156.868134 92.69341643 -1155.74269848 91.38122338 -1154.625 90.0625 C-1146.52919819 80.78843595 -1137.67488693 72.59609366 -1128 65 C-1126.93106658 64.13041001 -1125.86340867 63.25925032 -1124.796875 62.38671875 C-1084.89814866 30.00581321 -1035.39910585 11.01838179 -985 3 C-983.97293945 2.83483887 -982.94587891 2.66967773 -981.88769531 2.49951172 C-871.13804509 -14.37645925 -756.34112627 28.59033822 -662.65087891 84.42626953 C-660.21714742 85.87108747 -657.77415996 87.29773644 -655.32421875 88.71484375 C-645.33927009 94.4982051 -635.62783977 100.64151307 -626 107 C-625.35820801 107.4228125 -624.71641602 107.845625 -624.05517578 108.28125 C-603.52976263 121.82030119 -583.40680461 135.89483106 -564 151 C-562.41294567 152.21432216 -560.82588186 153.42863272 -559.23779297 154.64160156 C-553.317014 159.1695724 -547.47554435 163.78982111 -541.66772461 168.46166992 C-538.55870298 170.96082805 -535.44040343 173.44495756 -532.2890625 175.890625 C-526.12797403 180.67217981 -520.17085779 185.53597041 -514.42578125 190.8203125 C-511.84872426 193.13592892 -509.19417609 195.32205066 -506.5 197.5 C-501.16214258 201.81749665 -496.05765303 206.35924678 -491 211 C-486.53951028 209.58075327 -483.67183036 207.13360144 -480.375 203.9375 C-474.7951341 198.67621224 -468.97952998 193.80436224 -463 189 C-461.22825915 187.54276936 -459.45743667 186.08442146 -457.6875 184.625 C-451.84402482 179.8462258 -445.91647126 175.1801675 -439.96582031 170.53613281 C-437.89882862 168.92094259 -435.83609217 167.30041162 -433.7734375 165.6796875 C-423.75851593 157.82862718 -413.60726937 150.18668812 -403.32177734 142.69384766 C-401.09127349 141.06658838 -398.86745137 139.43056524 -396.64453125 137.79296875 C-384.3664811 128.78943531 -371.72409099 120.35734855 -359 112 C-357.7941626 111.20650146 -357.7941626 111.20650146 -356.56396484 110.39697266 C-329.88004215 92.86946904 -302.27967156 76.80816908 -274 62 C-273.0212793 61.48727539 -272.04255859 60.97455078 -271.03417969 60.44628906 C-192.05542242 19.36664442 -104.1860178 -6.88387209 0 0 Z M-223 168 C-224.00337402 168.44762695 -225.00674805 168.89525391 -226.04052734 169.35644531 C-238.08904785 174.77951104 -249.64063824 181.04267018 -261.18847656 187.45166016 C-263.98713269 188.99291382 -266.79900793 190.50649893 -269.6171875 192.01171875 C-280.89518853 198.04867934 -291.80095659 204.4591321 -302.53564453 211.4140625 C-305.1355578 213.08723831 -307.75104651 214.7335472 -310.37109375 216.375 C-322.85731282 224.21244611 -335.00952373 232.42548708 -347 241 C-347.75200684 241.53447754 -348.50401367 242.06895508 -349.27880859 242.61962891 C-369.90458435 257.28273781 -389.86024891 272.80313109 -409.40625 288.87109375 C-411.13031952 290.28618093 -412.85947876 291.6950905 -414.59375 293.09765625 C-425.2766298 301.75393091 -435.6296935 310.79797342 -445.81640625 320.03125 C-447.81737985 321.83534784 -449.8395031 323.61007017 -451.875 325.375 C-456.78959207 329.65926363 -461.57731332 334.08129856 -466.37060547 338.5 C-468.03726259 340.03430347 -469.70777523 341.56432167 -471.37890625 343.09375 C-477.38681553 348.60201044 -483.31213484 354.1574799 -489 360 C-493.34940375 358.34258158 -496.09101647 355.08829629 -499.25 351.8125 C-503.32699895 347.65922682 -507.41479798 343.63083982 -511.85546875 339.86328125 C-514.16214811 337.85911721 -516.39285248 335.78674093 -518.62548828 333.70092773 C-524.03258918 328.64986604 -529.54737665 323.84601933 -535.3203125 319.2109375 C-538.13253315 316.8906505 -540.81797263 314.46928866 -543.5 312 C-548.82968637 307.10631054 -554.36704795 302.538056 -560 298 C-561.20650012 297.01396341 -562.41218302 296.02692631 -563.6171875 295.0390625 C-578.98397163 282.45709704 -594.67721566 270.35118282 -610.73095703 258.65869141 C-612.80675313 257.14126525 -614.87163637 255.61036393 -616.93359375 254.07421875 C-678.3026127 208.66722839 -745.61949723 171.38581007 -818 147 C-818.96502441 146.66887207 -819.93004883 146.33774414 -820.92431641 145.99658203 C-840.04446239 139.44626404 -859.75242579 135.33850799 -879.6875 132.1875 C-880.98647217 131.9805249 -882.28544434 131.7735498 -883.6237793 131.56030273 C-927.15094439 124.96275234 -973.21317274 128.08728174 -1013 148 C-1013.65645508 148.32081543 -1014.31291016 148.64163086 -1014.98925781 148.97216797 C-1065.31137944 173.7061314 -1097.47264071 223.74589696 -1115.48339844 275.27905273 C-1134.57248713 331.66772532 -1140.15237806 389.21886626 -1140.1875 448.375 C-1140.18815586 449.05670383 -1140.18881172 449.73840767 -1140.18948746 450.4407692 C-1140.21201473 479.44324915 -1139.33626724 508.13971924 -1136.375 537 C-1136.24538879 538.28740082 -1136.11577759 539.57480164 -1135.98223877 540.9012146 C-1133.63408885 564.0674744 -1130.39222209 586.99773162 -1126.36199951 609.92657471 C-1125.85279952 612.84312046 -1125.3654122 615.7631876 -1124.87890625 618.68359375 C-1123.96431859 624.13091298 -1122.98966747 629.56589178 -1122 635 C-1121.68579102 636.75086914 -1121.68579102 636.75086914 -1121.36523438 638.53710938 C-1118.63776237 653.69570728 -1115.71149387 668.78887859 -1112.3125 683.8125 C-1112.02721436 685.07449219 -1111.74192871 686.33648438 -1111.44799805 687.63671875 C-1109.98878101 693.98744981 -1108.42335285 700.26734433 -1106.53979492 706.5065918 C-1105.91538174 709.3908667 -1105.91155063 712.05765542 -1106 715 C-1106.66604248 715.1952124 -1107.33208496 715.3904248 -1108.01831055 715.59155273 C-1115.72292756 717.85329621 -1123.42072525 720.13754723 -1131.11419678 722.43688965 C-1132.88644441 722.96609173 -1134.6592674 723.49336589 -1136.43212891 724.02050781 C-1173.32994797 735.03917421 -1209.46028884 748.19644561 -1245 763 C-1245.68991028 763.28725952 -1246.37982056 763.57451904 -1247.09063721 763.8704834 C-1285.92107969 780.07664046 -1323.94732283 798.26328052 -1360 820 C-1361.09296387 820.65822754 -1362.18592773 821.31645508 -1363.31201172 821.99462891 C-1375.86442815 829.57939366 -1388.31471463 837.25631193 -1400.26464844 845.76611328 C-1401.98431284 846.98884596 -1403.7135594 848.19681124 -1405.4453125 849.40234375 C-1420.27846407 859.78639408 -1434.38580951 871.07188844 -1448 883 C-1448.72058594 883.62003906 -1449.44117188 884.24007812 -1450.18359375 884.87890625 C-1463.53264917 896.39628255 -1476.61773709 908.5126304 -1488 922 C-1488.79535156 922.90621094 -1489.59070312 923.81242188 -1490.41015625 924.74609375 C-1515.43268304 953.43381445 -1536.71883976 988.17358435 -1545.2109375 1025.5546875 C-1545.7455104 1027.88881273 -1546.3551704 1030.20677214 -1547.03125 1032.50390625 C-1550.24585228 1044.10499108 -1550.20138819 1056.23709565 -1550.25 1068.1875 C-1550.25918457 1069.43345947 -1550.26836914 1070.67941895 -1550.27783203 1071.96313477 C-1550.24979577 1080.47214152 -1549.46325233 1088.6212899 -1548 1097 C-1547.68458252 1098.83679321 -1547.68458252 1098.83679321 -1547.36279297 1100.71069336 C-1545.73511298 1109.50141651 -1543.34494241 1117.82445239 -1540.375 1126.25 C-1540.15690674 1126.87418823 -1539.93881348 1127.49837646 -1539.71411133 1128.14147949 C-1524.25228364 1172.24722627 -1495.37998683 1208.60461163 -1462.75 1241.375 C-1462.00548584 1242.12418701 -1461.26097168 1242.87337402 -1460.49389648 1243.64526367 C-1455.82368961 1248.30197734 -1451.00053735 1252.70264317 -1446 1257 C-1444.84346486 1258.02164351 -1443.68847046 1259.04503432 -1442.53515625 1260.0703125 C-1434.00137292 1267.60069576 -1425.17603808 1274.62571843 -1416.06591797 1281.44433594 C-1414.13632848 1282.89734282 -1412.22395545 1284.36980093 -1410.31640625 1285.8515625 C-1384.26523753 1305.95672234 -1355.78615543 1323.15378591 -1327 1339 C-1325.40937744 1339.87760986 -1325.40937744 1339.87760986 -1323.78662109 1340.77294922 C-1295.26071103 1356.44935024 -1266.01287802 1370.41771005 -1236 1383 C-1234.90655273 1383.46180664 -1233.81310547 1383.92361328 -1232.68652344 1384.39941406 C-1192.1709319 1401.46183847 -1149.12426932 1418.89410361 -1106 1428 C-1106.2630896 1429.0506665 -1106.2630896 1429.0506665 -1106.53149414 1430.12255859 C-1111.04720073 1448.25267438 -1115.07539466 1466.43889019 -1118.74267578 1484.758255 C-1119.65838485 1489.32848826 -1120.60201397 1493.89203524 -1121.5625 1498.453125 C-1127.88299383 1528.73312723 -1132.23183634 1559.32564195 -1135.57080078 1590.06738281 C-1135.98203739 1593.8354143 -1136.40975697 1597.6012686 -1136.83984375 1601.3671875 C-1137.64641385 1608.57074373 -1138.35683152 1615.78007112 -1139 1623 C-1139.10586426 1624.18609863 -1139.21172852 1625.37219727 -1139.32080078 1626.59423828 C-1141.02840252 1646.87708307 -1141.20700523 1667.1550328 -1141.25 1687.5 C-1141.25526703 1688.76643341 -1141.26053406 1690.03286682 -1141.26596069 1691.337677 C-1141.31841246 1707.65070532 -1140.73258168 1723.77130712 -1139.26402283 1740.01924133 C-1138.88973638 1744.24485165 -1138.56064515 1748.4737138 -1138.2311554 1752.70301819 C-1137.13427736 1766.56839936 -1135.7101561 1780.21008274 -1132.84375 1793.83984375 C-1132.01304568 1797.83564906 -1131.31556414 1801.85048743 -1130.61791992 1805.87133789 C-1121.1403386 1860.01888645 -1099.7214066 1915.02233958 -1061 1955 C-1060.49355957 1955.53222168 -1059.98711914 1956.06444336 -1059.46533203 1956.61279297 C-1037.41292217 1979.75119408 -1009.77268674 1995.53351123 -979 2004 C-978.31292969 2004.19432617 -977.62585938 2004.38865234 -976.91796875 2004.58886719 C-938.92750613 2015.15611723 -896.49439812 2013.1038432 -858.33837891 2004.51611328 C-855.90164503 2003.97829167 -853.45919934 2003.48254657 -851.01171875 2002.99609375 C-842.94984265 2001.38356052 -835.05547126 1999.61810993 -827.23193359 1997.05053711 C-824.17689802 1996.05750054 -821.11071275 1995.11859426 -818.03515625 1994.19140625 C-810.73217742 1991.94791956 -803.51272321 1989.48968225 -796.3125 1986.9375 C-795.64458435 1986.70078583 -794.9766687 1986.46407166 -794.28851318 1986.22018433 C-772.88590627 1978.60218383 -752.25804065 1969.44690264 -731.88085938 1959.41699219 C-729.19078019 1958.09383799 -726.49463213 1956.78396901 -723.796875 1955.4765625 C-710.89698548 1949.17882883 -698.40736253 1942.21439338 -686 1935 C-685.1440625 1934.50242187 -684.288125 1934.00484375 -683.40625 1933.4921875 C-640.34008853 1908.32539939 -599.41477195 1878.79153541 -561 1847 C-559.22931882 1845.56231259 -557.45848108 1844.12481798 -555.6875 1842.6875 C-550.25128606 1838.2396886 -544.91707921 1833.67983242 -539.59765625 1829.09375 C-537.2621662 1827.08054875 -534.91643598 1825.08071839 -532.55859375 1823.09375 C-524.75813319 1816.50318854 -517.26078276 1809.64346236 -509.84375 1802.625 C-506.38918241 1799.35660671 -502.89226232 1796.13815297 -499.375 1792.9375 C-495.4800135 1789.38213085 -491.67741606 1785.77956651 -488 1782 C-483.65058791 1783.6574216 -480.90899984 1786.91172066 -477.75 1790.1875 C-473.71568136 1794.29710659 -469.67248642 1798.27779164 -465.27734375 1802.00390625 C-462.00062438 1804.87595359 -458.85622348 1807.88482379 -455.6875 1810.875 C-450.51340862 1815.7436829 -445.23014341 1820.35770771 -439.67578125 1824.79296875 C-436.6850118 1827.25980779 -433.83673174 1829.86006199 -431 1832.5 C-426.49600606 1836.68084386 -421.87274616 1840.65367716 -417.0859375 1844.5078125 C-414.76409547 1846.38292037 -412.45907923 1848.27224355 -410.1640625 1850.1796875 C-395.44714011 1862.40459048 -380.36793299 1874.1498234 -364.98779297 1885.52880859 C-363.6854281 1886.49270575 -362.38489889 1887.45908924 -361.08642578 1888.42822266 C-338.64135465 1905.14965842 -315.03654102 1920.67100927 -291 1935 C-290.23187988 1935.45842285 -289.46375977 1935.9168457 -288.67236328 1936.38916016 C-253.4296221 1957.31569436 -216.87711417 1975.86164639 -178.1875 1989.5 C-177.49805298 1989.74362274 -176.80860596 1989.98724548 -176.0982666 1990.23825073 C-110.39860503 2013.33108579 -36.64470956 2023.1058477 28.25 1992.5 C36.29867296 1988.57092202 43.8260091 1984.38837091 51 1979 C52.01449219 1978.26652344 53.02898437 1977.53304688 54.07421875 1976.77734375 C60.34224999 1972.17146348 66.17468709 1967.16506043 71.875 1961.875 C72.48126221 1961.31345215 73.08752441 1960.7519043 73.7121582 1960.17333984 C100.30873309 1935.05414979 117.77416816 1901.62490218 131 1868 C131.35835937 1867.09942871 131.71671875 1866.19885742 132.0859375 1865.27099609 C140.70409865 1843.42185164 146.57402391 1820.58344551 150.56005859 1797.45800781 C151.00893168 1794.95009759 151.50648148 1792.45646544 152.01953125 1789.9609375 C154.61218435 1777.27134766 156.34911071 1764.58019081 157.62792969 1751.69335938 C157.87873398 1749.20374823 158.14269287 1746.71543159 158.41894531 1744.22851562 C166.87775804 1667.35452002 159.9252686 1587.95301129 147 1512 C146.77070248 1510.62768034 146.54187365 1509.2552823 146.31347656 1507.8828125 C142.84707777 1487.10343873 138.72023208 1466.53090857 134 1446 C133.7426709 1444.87964355 133.4853418 1443.75928711 133.22021484 1442.60498047 C132.52844388 1439.610046 131.82990937 1436.61686712 131.125 1433.625 C130.92189209 1432.76285889 130.71878418 1431.90071777 130.50952148 1431.01245117 C129.56304917 1426.90020011 129.56304917 1426.90020011 128 1423 C129.00313232 1422.78593506 130.00626465 1422.57187012 131.03979492 1422.35131836 C142.42164833 1419.84320187 153.31780023 1416.40262451 164.3125 1412.5625 C166.10835837 1411.94121786 167.90434062 1411.32029366 169.70043945 1410.69970703 C175.13919227 1408.81556345 180.5705362 1406.91072206 186 1405 C186.82415405 1404.71046448 187.64830811 1404.42092896 188.49743652 1404.12261963 C270.4213601 1375.32049757 351.47092252 1339.22655205 422 1288 C422.75877441 1287.45375977 423.51754883 1286.90751953 424.29931641 1286.34472656 C438.76752339 1275.92238556 452.74485154 1264.9756628 465.8984375 1252.921875 C467.80036142 1251.18256911 469.73319732 1249.49236869 471.6875 1247.8125 C484.59909959 1236.59074982 484.59909959 1236.59074982 496.22265625 1224.0859375 C498.10473987 1221.87707453 500.09055777 1219.78370457 502.09130859 1217.68261719 C542.46927022 1175.02929765 569.80098683 1118.88580976 568.31640625 1059.5234375 C567.95167569 1050.51629224 566.893132 1041.8106089 565 1033 C564.80664062 1032.09475586 564.61328125 1031.18951172 564.4140625 1030.25683594 C557.94963152 1001.0571608 544.25654309 974.28019452 527 950 C526.39309326 949.14438477 526.39309326 949.14438477 525.77392578 948.27148438 C519.96287367 940.15335784 513.58067814 932.50089644 507 925 C506.36521729 924.27546631 505.73043457 923.55093262 505.07641602 922.80444336 C499.43070308 916.44227908 493.53093719 910.37608071 487.5065918 904.3762207 C485.93225845 902.8072764 484.36338411 901.23301442 482.79492188 899.65820312 C477.36937812 894.22876194 471.8641438 888.95853557 466 884 C464.97844539 883.11150569 463.95757055 882.22222899 462.9375 881.33203125 C455.19247681 874.68902598 447.18431578 868.49614845 438.96582031 862.45117188 C437.13283667 861.09806025 435.31098341 859.73146721 433.4921875 858.359375 C361.53492437 804.37622113 277.11573581 767.23697438 161.25 727.5 C160.49966492 727.25601471 159.74932983 727.01202942 158.97625732 726.76065063 C150.88134599 724.13536768 142.7636963 721.59112272 134.609375 719.15625 C133.89017883 718.93892212 133.17098267 718.72159424 132.42999268 718.49768066 C129.51388641 717.63743239 127.05822525 717 124 717 C124.29132813 715.73671875 124.58265625 714.4734375 124.8828125 713.171875 C126.27303714 707.11858121 127.63925017 701.05997971 129 695 C129.23525391 693.95666504 129.47050781 692.91333008 129.71289062 691.83837891 C133.4384694 675.2195265 136.61102123 658.53629599 139.55224609 641.76391602 C139.83033526 640.17983825 140.10849172 638.5957723 140.38671875 637.01171875 C140.52170273 636.24137299 140.65668671 635.47102722 140.79576111 634.67733765 C141.65184979 629.83519599 142.59293359 625.01905418 143.5859375 620.203125 C145.00914912 613.18728647 146.03648659 606.162331 146.9375 599.0625 C147.10443359 597.76441406 147.27136719 596.46632813 147.44335938 595.12890625 C147.70518592 593.09230334 147.96621313 591.05561477 148.22470093 589.01858521 C148.78412564 584.62058351 149.38353251 580.22976118 150.00390625 575.83984375 C151.14780524 567.57468413 152.12228175 559.29696382 153 551 C153.09192627 550.13207825 153.18385254 549.26415649 153.27856445 548.36993408 C159.21277121 491.32224066 161.02857176 431.19480038 153.30395508 374.24206543 C152.99434814 371.95831016 152.69656726 369.67322791 152.40039062 367.38769531 C150.29149569 351.30314812 147.59280426 335.38255207 143.65039062 319.63671875 C142.97012932 316.87890263 142.33425745 314.11319687 141.703125 311.34375 C136.30036251 288.10025247 128.5911478 265.40216666 118 244 C117.53835449 243.06430176 117.07670898 242.12860352 116.60107422 241.16455078 C110.4978463 228.9037277 104.07490744 217.07740824 96 206 C95.59571777 205.4416748 95.19143555 204.88334961 94.77490234 204.30810547 C89.13713977 196.5877449 83.02017872 189.3928021 76.41650391 182.48388672 C75.47330712 181.49582225 74.5354411 180.50264107 73.60302734 179.50439453 C41.64802206 145.34866193 -4.03211664 128.84286633 -50.02832031 126.87011719 C-110.85569381 124.95657732 -168.13624535 143.47215328 -223 168 Z " fill="#FEFEFE" transform="translate(1693,9)"/>
<path d="M0 0 C2.80222633 -0.00202528 5.60444569 -0.00577086 8.40666962 -0.00990677 C27.92035224 -0.03498558 47.42180118 0.07507185 66.92967987 0.5799675 C67.71885363 0.60018337 68.50802738 0.62039925 69.32111549 0.64122772 C83.06381433 1.00228641 96.7883626 1.60746647 110.50780487 2.49012375 C117.66617526 2.93569455 124.82567371 3.24957456 131.99297523 3.50645161 C138.06032466 3.72529314 144.1254311 3.9826568 150.19034386 4.2607832 C154.01653091 4.43416343 157.84144365 4.58817786 161.67003632 4.69755173 C165.31481731 4.80218386 168.95413218 4.95766892 172.59534264 5.14925385 C174.60100948 5.24148996 176.60890339 5.28046055 178.61634064 5.31791306 C187.42760984 5.84298303 187.42760984 5.84298303 191.29061127 9.46436691 C193.35249594 12.26303258 195.10017148 15.08936814 196.79296112 18.12293625 C197.5800223 19.30270253 198.37714699 20.47592972 199.19139862 21.63709641 C199.84366425 22.63531418 200.49592987 23.63353195 201.16796112 24.66199875 C201.53493607 25.22221725 201.90191101 25.78243576 202.28000641 26.35963058 C203.45396974 28.15380766 204.62366675 29.95071358 205.79296112 31.74793625 C206.6249748 33.02257767 207.45708923 34.29715333 208.28929901 35.57166672 C216.20300441 47.70470047 224.02394301 59.89677519 231.79296112 72.12293625 C232.3350119 72.97532883 232.87706268 73.82772141 233.43553925 74.70594406 C251.51748749 103.16407913 269.17336673 131.90317429 286.04393768 161.09705734 C287.8602447 164.23933947 289.68188067 167.37849384 291.50389862 170.5174675 C299.46905391 184.25946946 307.30152892 198.0708497 315.02489471 211.95008469 C316.81319108 215.15923955 318.60911881 218.36403005 320.40624237 221.56824875 C333.81400307 245.52223852 346.61190599 269.79997274 359.25682831 294.16395187 C360.65785528 296.86268788 362.060963 299.5603338 363.46459198 302.25771713 C363.77146942 302.84745819 364.07834686 303.43719925 364.39452362 304.04481125 C364.70140106 304.63451202 365.0082785 305.2242128 365.32445526 305.83178329 C367.43467893 309.88919495 369.53343842 313.95240501 371.62889862 318.0174675 C373.47528797 321.59696742 375.34293429 325.16022168 377.26952362 328.697155 C377.61072235 329.33709396 377.95192108 329.97703293 378.30345917 330.63636398 C379.14125614 332.20582668 379.99545137 333.76650885 380.85155487 335.32606125 C382.72616459 340.89544116 380.86273975 345.29404493 378.45140839 350.38953781 C377.43111131 352.43608845 376.39973582 354.47714058 375.35936737 356.51356125 C374.80740189 357.61278915 374.2554364 358.71201706 373.68674469 359.8445549 C371.91897335 363.35880532 370.13726616 366.86578418 368.35546112 370.37293625 C367.19117042 372.6849937 366.02775049 374.99748986 364.86522675 377.31043625 C358.66719731 389.6172037 352.36581508 401.86501788 345.90169525 414.03406906 C344.82603162 416.06063106 343.75456687 418.08934644 342.68480682 420.11903 C332.604568 439.24269601 322.30811876 458.2351486 311.79296112 477.12293625 C311.18855194 478.2118718 310.58414276 479.30080734 309.96141815 480.42274094 C302.04377739 494.68529601 293.94880003 508.83316543 285.68505096 522.89783859 C283.65916978 526.35098574 281.64150991 529.8088487 279.62499237 533.2674675 C266.69008257 555.43858073 253.34418638 577.33250278 239.70165253 599.07606125 C237.76226354 602.1719393 235.82939222 605.27179622 233.89842987 608.37293625 C227.16147432 619.18928963 220.38426771 629.97280635 213.41405487 640.64051437 C211.82240813 643.0778433 210.23421426 645.5174024 208.64662933 647.95737839 C207.11938365 650.30383129 205.59049794 652.64921249 204.06121063 654.99433517 C203.30887862 656.14831793 202.55695497 657.30256703 201.80547333 658.45710373 C200.0796485 661.10755018 198.34581464 663.75178708 196.59471893 666.38563156 C195.50481299 668.04146157 194.43909014 669.7140645 193.42089081 671.41492844 C192.22264862 673.33387375 192.22264862 673.33387375 189.79296112 676.12293625 C185.20023265 677.04263897 180.59055262 677.32348113 175.91942596 677.58778 C174.94367111 677.64411102 174.94367111 677.64411102 173.94820404 677.70158005 C171.80027576 677.82453256 169.65212472 677.94280877 167.50389862 678.06043625 C165.96260539 678.14623939 164.42131517 678.23209676 162.88002777 678.31800461 C159.62700519 678.49842234 156.37384844 678.67617288 153.12059784 678.85242844 C149.88658779 679.02801572 146.65289821 679.20822006 143.41942596 679.39344406 C95.44831355 682.13755221 47.47655613 682.33592324 -0.55852675 682.36174726 C-1.41424718 682.36221697 -2.26996761 682.36268668 -3.15161896 682.36317062 C-4.00830555 682.36363907 -4.86499215 682.36410752 -5.74763894 682.36459017 C-11.74594678 682.36892679 -17.74416587 682.38387333 -23.74243927 682.40418625 C-60.31817244 682.52523179 -96.82824596 682.30878274 -133.37500763 680.73231125 C-134.11102967 680.70073709 -134.8470517 680.66916292 -135.60537744 680.63663197 C-144.48436214 680.25324302 -153.35750474 679.80644713 -162.23130417 679.31717491 C-165.66023161 679.14965109 -169.08482818 679.02604488 -172.51609224 678.92856181 C-174.59677757 678.86524692 -176.67604041 678.78475584 -178.75586414 678.69785309 C-181.33151165 678.59250866 -183.90854638 678.51552897 -186.48599529 678.47293091 C-192.63903453 678.17740904 -196.44975187 677.61105433 -200.98607635 673.25429916 C-203.5329855 670.29254548 -205.8043902 667.29791359 -207.59766388 663.81629562 C-208.30632599 662.48827927 -208.30632599 662.48827927 -209.0293045 661.1334343 C-209.50045685 660.24309494 -209.97160919 659.35275558 -210.45703888 658.43543625 C-211.47843962 656.68680728 -212.5096836 654.94388998 -213.55078888 653.20692062 C-215.5696898 649.81185866 -217.53270376 646.3936006 -219.45459747 642.94276047 C-222.66622124 637.2304874 -226.27788889 631.83067858 -229.96485138 626.41859055 C-233.10652339 621.80083897 -236.09768548 617.09324221 -239.08203888 612.37293625 C-239.67371857 611.43957443 -240.26539825 610.50621262 -240.87500763 609.54456711 C-242.07986533 607.64327198 -243.2839814 605.74150664 -244.48731232 603.83924484 C-246.08019066 601.32329304 -247.67787075 598.8104752 -249.27735138 596.2987175 C-257.09055851 584.00953115 -264.67936535 571.58869933 -272.20703888 559.12293625 C-273.12622101 557.60192307 -273.12622101 557.60192307 -274.06397247 556.05018234 C-303.66492255 507.02384986 -331.79187659 457.14409448 -357.99536896 406.21815109 C-361.26441352 399.8660142 -364.5728275 393.53942598 -367.95703888 387.24793625 C-371.98989512 379.72311216 -375.66875479 372.0352248 -379.30664825 364.31287766 C-382.17648452 358.2175998 -382.17648452 358.2175998 -385.27344513 352.2362175 C-385.82903107 351.20883469 -386.384617 350.18145187 -386.95703888 349.12293625 C-387.42625763 348.29793625 -387.89547638 347.47293625 -388.37891388 346.62293625 C-390.30647869 340.80387268 -387.68085376 335.44851586 -385.07105255 330.25159836 C-384.74880707 329.60316467 -384.42656158 328.95473099 -384.09455109 328.2866478 C-383.03100912 326.15287898 -381.95331039 324.0266225 -380.87500763 321.90028 C-380.11971342 320.39395323 -379.36519601 318.88723674 -378.61141205 317.38015366 C-377.02610343 314.21569857 -375.4342571 311.05465398 -373.83716583 307.89612961 C-371.82538195 303.9172035 -369.82543153 299.93248986 -367.8298254 295.9454298 C-359.61401363 279.5358751 -351.24942432 263.24401356 -342.34629059 247.19395065 C-339.89559659 242.73890132 -337.58596261 238.2111812 -335.26953888 233.68543625 C-329.73913692 222.99308138 -323.85083355 212.52740359 -317.88233185 202.07508469 C-316.18366533 199.08174812 -314.50637186 196.07742729 -312.83594513 193.06824875 C-304.83957283 178.66428559 -296.55157772 164.4549833 -288.10596466 150.31092453 C-285.78141287 146.40837923 -283.476982 142.49423546 -281.17432404 138.5787468 C-270.61423032 120.63371174 -259.77418791 102.87864884 -248.54297638 85.3455925 C-246.48734904 82.13579535 -244.44725803 78.91781597 -242.43360138 75.68153 C-237.7490444 68.16158327 -232.959306 60.71852995 -228.05860138 53.33778 C-227.59788239 52.64253723 -227.13716339 51.94729446 -226.66248322 51.23098373 C-224.25776776 47.61097615 -221.83041851 44.00950996 -219.36035919 40.43372726 C-215.11595123 34.25565459 -211.11604385 28.35706493 -208.15235138 21.43543625 C-205.44281081 15.45061055 -203.06355432 10.49065458 -197.20703888 7.12293625 C-184.68703399 3.26027233 -170.59606588 4.08536924 -157.64240265 4.13111496 C-153.06429589 4.11574025 -148.50101153 3.8765431 -143.92896271 3.64930344 C-141.07620395 3.50987021 -138.226004 3.41496846 -135.37110138 3.33387375 C-131.66917317 3.21075916 -127.99828334 2.95539284 -124.30860138 2.63074875 C-113.39786137 1.67690908 -102.44150868 1.49780056 -91.49720001 1.18867111 C-89.19042871 1.12245948 -86.88379751 1.05240246 -84.57715607 0.98182297 C-56.38819002 0.13581881 -28.19937787 0.01591492 0 0 Z " fill="#FEFEFE" transform="translate(1206.2070388793945,736.8770637512207)"/>
<path d="M0 0 C1.20960586 3.74923608 2.41803633 7.49884898 3.62548828 11.2487793 C4.23281168 13.13414093 4.8410026 15.01922305 5.44921875 16.90429688 C7.28178957 22.59728328 9.09425113 28.29213538 10.81640625 34.01953125 C13.85412901 43.92936829 17.29133776 53.70865318 20.6875 63.5 C21.05793427 64.56846161 21.42836853 65.63692322 21.81002808 66.73776245 C42.0825831 125.09005829 65.17839019 182.47182065 90.45370483 238.83239746 C91.06445225 240.19623953 91.6733973 241.56089033 92.28042603 242.9263916 C93.83783739 246.42776856 95.42340493 249.91200803 97.05419922 253.37988281 C97.71199747 254.80790429 98.36971502 256.23596295 99.02734375 257.6640625 C99.34095352 258.31289398 99.65456329 258.96172546 99.97767639 259.63021851 C101.91605904 263.88979689 102.32423905 266.51469777 101 271 C100.00165473 273.47441127 98.96649583 275.8531529 97.82421875 278.2578125 C97.50335297 278.94935425 97.18248718 279.640896 96.85189819 280.35339355 C96.16235913 281.83863095 95.46977872 283.32245948 94.77444458 284.80499268 C92.91773721 288.76800494 91.0886246 292.74372475 89.2578125 296.71875 C88.88956863 297.51721344 88.52132477 298.31567688 88.141922 299.13833618 C83.14872363 309.9879801 78.46757118 320.96599265 73.84838867 331.97961426 C72.93708039 334.14983921 72.02242476 336.31863499 71.10742188 338.48730469 C43.58288467 403.78138351 19.17551184 470.37587751 -2 538 C-60.90163934 525.68859178 -119.24247195 499.51313033 -173 473 C-174.17320801 472.42475586 -174.17320801 472.42475586 -175.37011719 471.83789062 C-179.2602522 469.9295225 -183.13447488 467.99315126 -186.99316406 466.02197266 C-188.40938378 465.30076879 -189.82826859 464.58478676 -191.24902344 463.87255859 C-232.63540243 443.09514773 -272.34800551 416.72690746 -307 386 C-307.9796875 385.13246094 -308.959375 384.26492188 -309.96875 383.37109375 C-322.15254423 372.38275245 -333.93055913 360.97839045 -344 348 C-344.64839844 347.21882813 -345.29679687 346.43765625 -345.96484375 345.6328125 C-361.38858484 327.00215495 -372.32841759 306.2319386 -379 283 C-379.18643066 282.37375732 -379.37286133 281.74751465 -379.56494141 281.10229492 C-385.3106519 253.33780947 -374.72382229 225.99688873 -360 203 C-356.2483078 197.47468403 -352.17565001 192.20912002 -348 187 C-347.54318848 186.42604492 -347.08637695 185.85208984 -346.61572266 185.26074219 C-334.42502947 170.09422872 -320.38742792 155.90577888 -305 144 C-303.16327673 142.44148629 -301.33017043 140.87870354 -299.5 139.3125 C-268.99558009 113.91177969 -234.19360895 93.18159254 -199 75 C-198.41454407 74.69749329 -197.82908813 74.39498657 -197.22589111 74.08331299 C-141.48406213 45.32866596 -82.85467983 23.51601752 -23 5 C-21.6385083 4.57460938 -21.6385083 4.57460938 -20.24951172 4.140625 C-18.12754967 3.47960546 -16.00227542 2.83116965 -13.875 2.1875 C-12.84246094 1.86362305 -12.84246094 1.86362305 -11.7890625 1.53320312 C-7.71411987 0.30838735 -4.2332744 -0.08780401 0 0 Z " fill="#FEFEFE" transform="translate(614,812)"/>
<path d="M0 0 C6.84896988 0.4787645 13.28911358 1.38171288 19.9375 3.0625 C50.55156975 10.37344583 81.93707501 14.99808052 113 20 C114.18142578 20.19045898 115.36285156 20.38091797 116.58007812 20.57714844 C155.36949332 26.78749777 194.41449733 31.14161091 233.46228027 35.3565979 C236.47469822 35.68474385 239.48586561 36.02298397 242.49707031 36.36206055 C250.85628157 37.28460671 259.12705814 38.14020687 267.54296875 38.16015625 C283.58625357 38.28340407 283.58625357 38.28340407 288.04052734 41.45117188 C291.83700576 45.31312473 294.27571791 49.8081572 296.71191406 54.60351562 C298.8527057 58.58645928 301.55470771 62.12959089 304.25 65.75 C305.33374319 67.24709923 306.41706777 68.74450156 307.5 70.2421875 C313.29270147 78.16220865 319.28900146 85.92955224 325.25683594 93.71777344 C327.48209447 96.63117914 329.68159363 99.56254058 331.875 102.5 C335.69593868 107.6115024 339.57632811 112.67553766 343.4765625 117.7265625 C345.12497524 119.86151674 346.76388049 122.00274865 348.3984375 124.1484375 C353.51812257 130.85870434 358.76584702 137.44652595 364.1081543 143.98095703 C367.66891266 148.3417741 371.16723283 152.74473275 374.625 157.1875 C379.07024522 162.88888757 383.68921039 168.42030011 388.3828125 173.91796875 C390.79496524 176.74683013 393.15419998 179.61575122 395.5 182.5 C403.95906724 192.88226548 412.70238616 203.03112047 421.43652344 213.18212891 C422.492746 214.41021029 423.54806209 215.6390718 424.60253906 216.86865234 C430.91265818 224.22413395 437.29904663 231.4842579 443.90234375 238.57836914 C447.02591955 241.93465134 450.06890187 245.344066 453.06640625 248.8125 C457.61623866 253.95978515 462.32619117 258.96548671 467 264 C465.33444164 268.33256004 462.12564157 271.13552866 458.875 274.3125 C458.28460937 274.89572021 457.69421875 275.47894043 457.0859375 276.07983398 C453.54121121 279.55897117 449.93275168 282.92271279 446.14453125 286.13671875 C443.83776469 288.14095855 441.60697697 290.21341257 439.37426758 292.29931641 C433.94521358 297.37083392 428.40890189 302.20052019 422.61328125 306.85546875 C420.00152377 308.99874956 417.49634698 311.2238033 415 313.5 C406.05411072 321.63006919 396.49506403 329.02658724 386.97021484 336.45947266 C384.8891181 338.08669948 382.81360575 339.72088808 380.73828125 341.35546875 C371.05365403 348.96253918 361.21736756 356.31141959 351.18066406 363.44726562 C349.08135387 364.94207226 346.98932058 366.44656278 344.8984375 367.953125 C289.56783514 407.64378745 227.97968338 441.9928999 162 460 C160.82824219 460.34417969 159.65648437 460.68835937 158.44921875 461.04296875 C150.78204065 463.22999988 143.09850351 464.80680305 135.25 466.1875 C134.30366699 466.35451416 133.35733398 466.52152832 132.38232422 466.69360352 C120.72218335 468.66606161 109.18739665 469.2398227 97.375 469.25 C96.31335129 469.25101212 96.31335129 469.25101212 95.23025513 469.25204468 C69.82686819 469.21363574 47.74279389 463.66235797 28 447 C26.989375 446.236875 25.97875 445.47375 24.9375 444.6875 C-10.47281658 412.29082738 -21.90953981 357.2750767 -28.1875 312.125 C-28.34250977 311.02953857 -28.49751953 309.93407715 -28.65722656 308.80541992 C-31.67093769 285.79386418 -32.3543275 262.685837 -32.25835419 239.50350571 C-32.24982703 237.39472376 -32.24399985 235.28594662 -32.23858643 233.17715454 C-32.0401206 164.84788946 -22.55324777 97.60501001 -7.875 30.9375 C-7.71082581 30.18772888 -7.54665161 29.43795776 -7.37750244 28.66546631 C-5.2527805 18.99903464 -2.83974484 9.48302103 0 0 Z " fill="#FEFEFE" transform="translate(675,1460)"/>
<path d="M0 0 C9.80631212 41.14867305 18.40016068 82.33357181 23.22355652 124.40776062 C23.66491424 128.24160167 24.13694526 132.06861428 24.65380859 135.89306641 C28.61689706 165.41895361 29.48977861 194.69879221 29.49855042 224.4483223 C29.49998088 227.33640373 29.50625102 230.22444516 29.51306152 233.11251831 C29.54665494 254.31225278 29.04926351 275.15331266 26.34869385 296.20056152 C25.92384509 299.61139874 25.58182625 303.02647082 25.26042175 306.44839478 C24.23340677 317.09416395 22.1874113 327.54009481 20 338 C19.81034668 338.91362305 19.62069336 339.82724609 19.42529297 340.76855469 C11.92165371 376.47811733 -0.53788679 412.5519793 -24 441 C-24.77085937 441.95390625 -25.54171875 442.9078125 -26.3359375 443.890625 C-41.30630938 461.50918541 -63.42667344 471.60326716 -86.22265625 473.6875 C-151.62028179 478.538915 -215.71347871 451.12786379 -271.01757812 418.74511719 C-274.16577215 416.90300104 -277.32499844 415.08067363 -280.484375 413.2578125 C-296.76854263 403.79833125 -312.47150838 393.64411284 -328 383 C-329.23266602 382.15743652 -329.23266602 382.15743652 -330.49023438 381.29785156 C-341.82904626 373.51660424 -352.75073542 365.19854611 -363.64550781 356.81103516 C-365.70506511 355.22685888 -367.76892053 353.64863925 -369.8359375 352.07421875 C-376.67656692 346.85653901 -383.36639976 341.47781923 -390 336 C-391.77075782 334.56240698 -393.54159226 333.12490833 -395.3125 331.6875 C-400.74871394 327.2396886 -406.08292079 322.67983242 -411.40234375 318.09375 C-413.7378338 316.08054875 -416.08356402 314.08071839 -418.44140625 312.09375 C-426.29266492 305.45992273 -433.83097604 298.54819372 -441.296875 291.484375 C-444.32093579 288.62643759 -447.39098979 285.82818393 -450.5 283.0625 C-454.28739974 279.69094651 -457.87934845 276.17378766 -461.40625 272.53125 C-462.93927006 270.90653386 -462.93927006 270.90653386 -465 270 C-463.68610661 267.11084945 -462.25929135 264.99483345 -460.05859375 262.71484375 C-459.47956299 262.10745361 -458.90053223 261.50006348 -458.30395508 260.87426758 C-457.6880249 260.23513428 -457.07209473 259.59600098 -456.4375 258.9375 C-451.44990405 253.68596309 -446.72864587 248.33828564 -442.20703125 242.67578125 C-439.74020258 239.68502436 -437.14012604 236.83654779 -434.5 234 C-430.26913678 229.44766698 -426.27723906 224.75385314 -422.37890625 219.9140625 C-419.64094373 216.56017081 -416.82765443 213.27823425 -414 210 C-408.90102855 204.07779036 -403.92212577 198.07035413 -399 192 C-398.00444133 190.78601933 -397.00831046 189.57250776 -396.01171875 188.359375 C-389.793946 180.77361672 -383.7282568 173.09512725 -377.80126953 165.2800293 C-374.31320674 160.68917705 -370.75171522 156.16934373 -367.125 151.6875 C-360.50706386 143.48644111 -354.22396217 135.04157042 -347.93212891 126.58935547 C-346.01797962 124.02409551 -344.09476382 121.4659281 -342.16796875 118.91015625 C-334.52392338 108.76749238 -327.00424451 98.54655762 -319.6015625 88.2265625 C-317.97023389 85.95861784 -316.33022042 83.69720461 -314.6875 81.4375 C-308.52182915 72.95052883 -302.4520908 64.40859762 -296.53515625 55.74609375 C-296.11411621 55.15199707 -295.69307617 54.55790039 -295.25927734 53.94580078 C-293.92397759 51.97799259 -293.92397759 51.97799259 -292.86962891 49.59716797 C-291.47380582 46.88908788 -290.27233034 45.04259551 -288 43 C-283.83563803 41.72491738 -279.75928685 41.47286054 -275.41848755 41.32495117 C-272.41789779 41.22123938 -269.42579365 41.02171404 -266.4299469 40.8269043 C-264.82072052 40.72238837 -263.21119536 40.62238727 -261.60142517 40.52661133 C-251.87505677 39.92690313 -242.22912 38.70390898 -232.5625 37.5 C-228.99112101 37.06186664 -225.41938278 36.62669604 -221.84765625 36.19140625 C-220.99315887 36.08673538 -220.1386615 35.98206451 -219.25827026 35.8742218 C-212.0125516 34.99039315 -204.75886542 34.20596512 -197.5 33.4375 C-187.78777395 32.39417855 -178.15384389 31.02253137 -168.50854492 29.48242188 C-160.41557416 28.19317774 -152.31184912 27.08448225 -144.17285156 26.12695312 C-137.72732221 25.33492803 -131.42337936 24.10042806 -125.06323242 22.79614258 C-118.60848847 21.50327218 -112.10099771 20.5186643 -105.59921265 19.49557495 C-78.71447132 15.25465972 -52.0421824 10.16833909 -25.453125 4.3515625 C-24.18202881 4.07497803 -22.91093262 3.79839355 -21.60131836 3.51342773 C-19.12451016 2.97350621 -16.64870861 2.42894043 -14.17407227 1.87915039 C-13.05057373 1.63414795 -11.9270752 1.38914551 -10.76953125 1.13671875 C-9.77542236 0.91717529 -8.78131348 0.69763184 -7.75708008 0.47143555 C-5.10859942 0.01856951 -2.68027694 -0.08900612 0 0 Z " fill="#FEFEFE" transform="translate(1734,1456)"/>
<path d="M0 0 C2.81764883 2.36016794 5.62247127 4.73519355 8.41918945 7.12011719 C11.73754759 9.94745952 15.10215638 12.70647706 18.5 15.4375 C23.88142204 19.81334245 28.93998569 24.49308815 34.0078125 29.22265625 C36.91837875 31.9364646 39.90011992 34.55739756 42.91015625 37.16015625 C45.6437052 39.56670121 48.32115068 42.03302067 51 44.5 C55.60429678 48.73998008 60.25842692 52.91387967 65 57 C64.431775 60.66910998 63.05620402 62.24478235 60.375 64.75 C57.05314395 67.94838884 53.98582404 71.24073544 50.98046875 74.734375 C48.53393769 77.53316793 46.01904117 80.26671706 43.5 83 C36.77191574 90.31529538 30.2868159 97.82120526 23.82666016 105.37231445 C20.04898291 109.78543973 16.24743824 114.17722032 12.4375 118.5625 C4.14839575 128.12004369 -4.04592969 137.70033948 -11.80297852 147.69726562 C-15.10456423 151.92685512 -18.54359847 156.01264494 -22.0625 160.0625 C-26.29029282 164.93443136 -30.32172041 169.90386768 -34.21777344 175.04418945 C-37.34698975 179.17036266 -40.56216378 183.2187183 -43.8125 187.25 C-49.74288237 194.62498704 -55.4971387 202.12639809 -61.22119141 209.66210938 C-63.10487362 212.13783554 -64.99520569 214.60837738 -66.88671875 217.078125 C-77.52785252 230.98382963 -88.02948044 244.98645601 -98.1875 259.25 C-98.57881104 259.79744873 -98.97012207 260.34489746 -99.37329102 260.90893555 C-101.06206634 263.27266261 -102.74720423 265.6382134 -104.41113281 268.01953125 C-105.86799334 270.10379887 -107.33930495 272.17725748 -108.8125 274.25 C-109.25682373 274.89485352 -109.70114746 275.53970703 -110.15893555 276.20410156 C-112.82621681 279.92635602 -114.65760396 281.65320568 -119 283 C-121.25788194 283.31158736 -123.52790736 283.5401692 -125.80078125 283.7109375 C-127.16618213 283.82002153 -128.53157909 283.92915461 -129.89697266 284.03833008 C-130.97341034 284.1199791 -130.97341034 284.1199791 -132.07159424 284.20327759 C-147.44619963 285.38144597 -162.71826349 287.09550153 -178.00749207 289.09609985 C-184.42073436 289.93275616 -190.83885753 290.72804051 -197.2578125 291.51953125 C-199.42432003 291.78732418 -201.59082392 292.05514658 -203.75732422 292.32299805 C-206.97516275 292.72074936 -210.19305705 293.11800486 -213.41119385 293.51333618 C-223.97872555 294.81313904 -234.51710378 296.11959347 -245 298 C-247.31996789 298.39655265 -249.64030506 298.79094878 -251.9609375 299.18359375 C-253.76353027 299.48910156 -253.76353027 299.48910156 -255.60253906 299.80078125 C-265.8002011 301.5219502 -275.98945987 303.1908966 -286.25 304.5 C-297.49028209 305.95274754 -308.56555235 308.12705875 -319.67675781 310.34277344 C-324.06768035 311.21115159 -328.46485894 312.04504148 -332.86230469 312.87963867 C-348.03423985 315.76439528 -363.20505488 318.7252696 -378.25390625 322.203125 C-379.06988281 322.39060303 -379.88585937 322.57808105 -380.7265625 322.77124023 C-382.22174571 323.11768894 -383.71542168 323.47075026 -385.20703125 323.83227539 C-389.54963328 324.84165685 -393.54775085 325.15632084 -398 325 C-403.68253749 304.27687393 -407.98036558 283.32535547 -412.125 262.25 C-412.29512604 261.38953064 -412.46525208 260.52906128 -412.64053345 259.64251709 C-414.90838803 248.14666565 -416.90980816 236.63615971 -418.68151855 225.05380249 C-419.12085573 222.22063344 -419.59320425 219.39343349 -420.0703125 216.56640625 C-424.19778499 191.95901101 -426.7200829 167.29435098 -428.79431152 142.44091797 C-428.97999378 140.2374151 -429.17244924 138.03466143 -429.36816406 135.83203125 C-432.59110609 98.69604257 -432.93255751 60.45709482 -428.41455078 23.42675781 C-428.00799666 20.06610195 -427.65175333 16.70359673 -427.30859375 13.3359375 C-423.70599611 -20.85102335 -415.89967382 -54.91718672 -401 -86 C-400.68836914 -86.65597168 -400.37673828 -87.31194336 -400.05566406 -87.98779297 C-387.83783694 -113.3349359 -368.86637961 -133.52494007 -342 -143 C-337.70004005 -144.26077491 -333.40757571 -145.20102769 -329 -146 C-327.93652344 -146.20496094 -326.87304688 -146.40992188 -325.77734375 -146.62109375 C-237.52356784 -161.58810838 -139.24940811 -100.18571657 0 0 Z " fill="#FEFEFE" transform="translate(1074,376)"/>
<path d="M0 0 C2.67024392 -0.00437745 5.3388349 -0.04084942 8.00878906 -0.07861328 C33.51289271 -0.24584413 56.14852788 8.0532307 74.49316406 26.05810547 C80.94015499 32.61711826 86.42386823 39.58345751 91.30566406 47.37060547 C91.71236328 48.01916504 92.1190625 48.66772461 92.53808594 49.3359375 C113.27473211 83.10173226 122.77574012 124.02252447 127.13110352 163.06860352 C127.364029 165.14622203 127.60866426 167.22221352 127.85449219 169.29833984 C130.59926937 193.04119476 131.65733567 216.72874882 131.55566406 240.62060547 C131.55289459 241.90632446 131.55012512 243.19204346 131.54727173 244.51672363 C131.44668039 284.44498409 127.99945787 323.87940197 122.18066406 363.37060547 C121.98517377 364.70905888 121.78980194 366.0475296 121.59454346 367.38601685 C108.07006178 459.84181004 108.07006178 459.84181004 100.30566406 475.37060547 C93.6576382 474.74904208 87.3111958 473.60196243 80.80566406 472.12060547 C78.73047431 471.66077544 76.65494202 471.20248901 74.57910156 470.74560547 C73.52561523 470.51357422 72.47212891 470.28154297 71.38671875 470.04248047 C35.57285996 462.23267544 -0.64982649 455.99972818 -36.85340881 450.30392456 C-40.8747595 449.66863695 -44.88821413 448.99999461 -48.89746094 448.29248047 C-65.44732113 445.37551603 -82.0922997 443.36072419 -98.7701416 441.33831787 C-104.80343239 440.60563459 -110.83350485 439.85023987 -116.86230469 439.08154297 C-118.1079998 438.9240155 -118.1079998 438.9240155 -119.37886047 438.76330566 C-123.53508719 438.23746908 -127.68956964 437.70172004 -131.84204102 437.14697266 C-140.22292747 436.04699972 -148.53117092 435.21003055 -156.97558594 434.80029297 C-182.42120561 433.42298578 -182.42120561 433.42298578 -188.46777344 427.71435547 C-191.44654116 424.05235792 -193.53242752 420.08278935 -195.49902344 415.80761719 C-197.46467618 411.80003024 -200.11687359 408.32927419 -202.75683594 404.74560547 C-203.75251716 403.33569232 -204.74602464 401.92424146 -205.73730469 400.51123047 C-209.09217362 395.78456835 -212.56323761 391.1493522 -216.05834961 386.52587891 C-219.34556873 382.17691297 -222.58927634 377.79900818 -225.80908203 373.39990234 C-232.74506413 363.92617811 -239.87811253 354.62604052 -247.12060547 345.38525391 C-249.39214564 342.47728781 -251.63796643 339.54993903 -253.88183594 336.62060547 C-261.98916334 326.06778914 -270.23007991 315.63996269 -278.69433594 305.37060547 C-280.19504769 303.53785471 -281.69504232 301.70451652 -283.19433594 299.87060547 C-283.93941406 298.96052734 -284.68449219 298.05044922 -285.45214844 297.11279297 C-286.92838454 295.30736136 -288.40240329 293.50011406 -289.87402344 291.69091797 C-298.62395492 280.94811953 -307.62664906 270.42222938 -316.65527344 259.91357422 C-318.68802818 257.54682022 -320.7135151 255.17413363 -322.73339844 252.79638672 C-328.44327191 246.08457122 -334.26192337 239.50386717 -340.24511719 233.03466797 C-342.81605521 230.23820907 -345.31662064 227.39210298 -347.79199219 224.51123047 C-349.35235858 222.75541777 -350.94193876 221.05152586 -352.56542969 219.35498047 C-353.07074219 218.82130859 -353.57605469 218.28763672 -354.09667969 217.73779297 C-355.10282388 216.67788534 -356.11692534 215.6254624 -357.13964844 214.58154297 C-360.03491633 211.5159652 -360.69433594 210.77612786 -360.69433594 206.37060547 C-359.35253906 204.55883789 -359.35253906 204.55883789 -357.47558594 202.72607422 C-356.78980469 202.04867187 -356.10402344 201.37126953 -355.39746094 200.67333984 C-354.67042969 199.9753125 -353.94339844 199.27728516 -353.19433594 198.55810547 C-352.15019531 197.5284668 -352.15019531 197.5284668 -351.08496094 196.47802734 C-347.04169701 192.52086996 -342.88019313 188.73824332 -338.60107422 185.03881836 C-335.62321994 182.43348184 -332.75952165 179.71039547 -329.88183594 176.99560547 C-324.86090253 172.29230785 -319.71093732 167.84876207 -314.33886719 163.54638672 C-311.53594346 161.24028847 -308.86430319 158.82909016 -306.19433594 156.37060547 C-300.86459201 151.47686316 -295.32663343 146.90953231 -289.69433594 142.37060547 C-288.47606031 141.37291742 -287.25866287 140.37415636 -286.04199219 139.37451172 C-241.88413022 103.15514179 -194.37772257 70.33954524 -143.6875 43.93017578 C-141.77973769 42.93614759 -139.87508056 41.93612066 -137.97460938 40.92822266 C-96.05510864 18.71702643 -47.85611711 -0.00874883 0 0 Z " fill="#FEFEFE" transform="translate(1628.6943359375,226.62939453125)"/>
<path d="M0 0 C6.86527204 0.82626686 13.50464308 2.94297833 20.0625 5.0546875 C20.99923553 5.35207825 21.93597107 5.64946899 22.90109253 5.95587158 C25.93622096 6.92230646 28.96833659 7.89775374 32 8.875 C33.04399963 9.21013611 34.08799927 9.54527222 35.16363525 9.89056396 C106.33493882 32.75720102 176.07867048 60.91019361 240 100 C241.10166504 100.67305176 242.20333008 101.34610352 243.33837891 102.03955078 C246.56457244 104.01738705 249.78412924 106.00542896 253 108 C253.94834717 108.58644287 254.89669434 109.17288574 255.8737793 109.77709961 C262.46736484 113.90620895 268.74722028 118.37481434 275 123 C276.57819134 124.14233418 278.15756367 125.28303908 279.73828125 126.421875 C289.5543776 133.54447245 298.92700201 140.95527512 308 149 C309.35385283 150.16703084 310.70796995 151.33375525 312.0625 152.5 C313.37885592 153.66231427 314.69086177 154.82956228 316 156 C316.96164062 156.85722656 317.92328125 157.71445312 318.9140625 158.59765625 C343.71555914 180.94725095 367.50803859 209.04110028 376 242 C376.35707031 243.17046875 376.71414063 244.3409375 377.08203125 245.546875 C378.51999074 251.37061094 378.3289741 257.28637648 378.3125 263.25 C378.32861328 264.40113281 378.34472656 265.55226563 378.36132812 266.73828125 C378.36575242 274.58698667 377.26285521 281.49480471 375 289 C374.48759766 290.76537109 374.48759766 290.76537109 373.96484375 292.56640625 C367.26288738 312.11165543 356.16714182 329.21346229 343 345 C342.58443848 345.5057959 342.16887695 346.0115918 341.74072266 346.53271484 C335.73298553 353.83047025 329.4309679 360.74873452 322.75 367.4375 C322.10095703 368.08734863 321.45191406 368.73719727 320.78320312 369.40673828 C281.35366774 408.38593634 231.92367605 437.3057526 182.95458984 462.48095703 C181.02884817 463.4710384 179.104615 464.46406109 177.18212891 465.46044922 C149.24541041 479.91081351 120.28329427 492.08208355 90.90802002 503.27197266 C89.09729722 503.96287511 87.28857887 504.65902414 85.47998047 505.35546875 C67.61623691 512.20971228 49.48952678 518.22565372 31.3125 524.1875 C30.13174896 524.57578979 28.95099792 524.96407959 27.73446655 525.36413574 C24.36250205 526.47091067 20.98838191 527.57079946 17.61328125 528.66796875 C16.58655304 529.00489243 15.55982483 529.3418161 14.50198364 529.68894958 C13.55684906 529.99422073 12.61171448 530.29949188 11.63793945 530.61401367 C10.81131302 530.88283859 9.98468658 531.15166351 9.13301086 531.42863464 C7 532 7 532 4 532 C3.41436279 530.20381226 3.41436279 530.20381226 2.81689453 528.37133789 C-19.89755485 458.85484925 -46.35108708 390.84266558 -76 324 C-76.54916872 322.75993506 -77.09832251 321.51986351 -77.64746094 320.27978516 C-79.25935624 316.64234822 -80.8792519 313.00850141 -82.5 309.375 C-83.01836426 308.20686768 -83.53672852 307.03873535 -84.07080078 305.83520508 C-86.61774239 300.13851169 -89.22354796 294.49253042 -92.0020752 288.90579224 C-93.35488435 286.1850509 -94.68811395 283.4548659 -96.0222168 280.72491455 C-96.66625838 279.42408725 -97.32114742 278.12856585 -97.98754883 276.83905029 C-103.81665076 265.5593451 -103.81665076 265.5593451 -102.328125 260.6328125 C-101.59325591 259.06852976 -100.80990951 257.52678082 -100 256 C-99.20606366 254.23164114 -98.4127384 252.46299332 -97.62716675 250.69090271 C-96.37988697 247.90295208 -95.08632213 245.13728328 -93.79522705 242.36941528 C-63.52283456 177.36552898 -37.6944331 110.28170594 -14.5625 42.4375 C-14.22711212 41.45475098 -13.89172424 40.47200195 -13.5461731 39.45947266 C-9.8390656 28.58136453 -6.20428332 17.689594 -2.83607483 6.70103455 C-1.10456157 1.10456157 -1.10456157 1.10456157 0 0 Z " fill="#FEFEFE" transform="translate(1792,813)"/>
<path d="M0 0 C2.82108888 0.0237746 5.64123716 0.02050866 8.46240234 0.01391602 C18.20009168 0.02918329 27.48648222 0.42274748 37.06005859 2.33618164 C38.25759766 2.54758789 39.45513672 2.75899414 40.68896484 2.97680664 C69.57821694 8.97776979 95.49364014 20.55826019 119.06005859 38.33618164 C119.94822266 38.9974707 120.83638672 39.65875977 121.75146484 40.34008789 C158.65926157 69.13380412 185.42648562 113.44348252 191.47045898 160.07275391 C197.18991968 209.15871443 188.2626908 259.09687556 158.06005859 299.33618164 C157.60743652 299.94526367 157.15481445 300.5543457 156.68847656 301.18188477 C151.27761849 308.41131448 145.65892262 315.14690228 139.06005859 321.33618164 C138.21443359 322.18180664 137.36880859 323.02743164 136.49755859 323.89868164 C135.69318359 324.70305664 134.88880859 325.50743164 134.06005859 326.33618164 C133.59728516 326.83375977 133.13451172 327.33133789 132.65771484 327.84399414 C104.60594395 357.33607601 58.60301415 376.62184986 18.03405762 377.6971283 C14.30116996 377.74785002 10.57027987 377.7524121 6.8371582 377.72729492 C3.99625822 377.71117426 1.15677603 377.72726681 -1.68408203 377.74633789 C-13.09898402 377.76000865 -23.79295443 376.77690259 -34.93994141 374.33618164 C-35.96385986 374.12251953 -36.98777832 373.90885742 -38.04272461 373.6887207 C-86.00990423 363.2249924 -128.4881195 332.50212118 -155.39306641 291.66821289 C-182.53839204 248.97464149 -191.91212284 197.04754149 -181.35400391 147.59155273 C-170.33559752 99.27550066 -140.02875109 55.63198378 -98.00244141 29.14868164 C-95.33274537 27.51335319 -92.64241217 25.91665646 -89.93994141 24.33618164 C-89.33601563 23.97927246 -88.73208984 23.62236328 -88.10986328 23.25463867 C-74.54592571 15.3299342 -59.7722649 9.81640736 -44.68994141 5.52368164 C-44.05531982 5.3410376 -43.42069824 5.15839355 -42.7668457 4.97021484 C-40.50196222 4.36176805 -38.23068582 3.8396673 -35.93994141 3.33618164 C-34.76334961 3.07506592 -33.58675781 2.8139502 -32.37451172 2.54492188 C-21.56142778 0.30973052 -11.0196362 -0.09912861 0 0 Z " fill="#53C1DE" transform="translate(1197.93994140625,887.663818359375)"/>
<path d="M0 0 C3.27609568 3.78484959 4.94135896 8.15818799 6.8515625 12.72265625 C7.4081958 14.03597427 7.4081958 14.03597427 7.97607422 15.37582397 C9.19908835 18.2686083 10.41275452 21.16518778 11.625 24.0625 C12.04561707 25.0639505 12.46623413 26.065401 12.89959717 27.09719849 C31.62367034 71.70085866 48.86624224 116.86708505 64.5625 162.625 C64.89268127 163.5826828 65.22286255 164.5403656 65.56304932 165.52706909 C66.48795408 168.21620449 67.40388968 170.90820177 68.31640625 173.6015625 C68.72752907 174.79503548 68.72752907 174.79503548 69.1469574 176.01261902 C70.3335987 179.55122848 71 182.22863862 71 186 C60.03452115 189.35517619 48.98303779 191.84883382 37.75 194.125 C36.82403015 194.31397858 35.8980603 194.50295715 34.94403076 194.69766235 C8.41057842 200.0921023 -18.29111101 204.57258691 -45 209 C-45.98276917 209.16304626 -46.96553833 209.32609253 -47.97808838 209.49407959 C-65.34640445 212.36908812 -82.73590953 215.05453908 -100.1875 217.375 C-101.42910889 217.54306152 -102.67071777 217.71112305 -103.94995117 217.88427734 C-111.00993947 218.78746373 -117.88347202 219.21167758 -125 219 C-123.82628576 215.90414982 -122.57966595 213.11610804 -120.77734375 210.33984375 C-120.33060303 209.64415283 -119.8838623 208.94846191 -119.42358398 208.23168945 C-118.93317627 207.47460693 -118.44276855 206.71752441 -117.9375 205.9375 C-77.17091109 142.14226511 -39.59247555 75.85811504 -4.9465332 8.55175781 C-4.44081787 7.57174805 -3.93510254 6.59173828 -3.4140625 5.58203125 C-2.9701416 4.71811768 -2.5262207 3.8542041 -2.06884766 2.96411133 C-1 1 -1 1 0 0 Z " fill="#FEFEFE" transform="translate(1637,1182)"/>
<path d="M0 0 C2.93307136 2.55166766 4.40650345 5.41539746 6.15234375 8.86328125 C6.59617149 9.73234856 6.59617149 9.73234856 7.04896545 10.61897278 C7.68482941 11.86483388 8.3182506 13.11194416 8.94946289 14.36016846 C10.62856697 17.6780275 12.32855417 20.9851575 14.02734375 24.29296875 C14.53785782 25.28828613 14.53785782 25.28828613 15.0586853 26.30371094 C19.85496511 35.63641978 24.91896193 44.82013197 30 54 C30.84981445 55.54107422 30.84981445 55.54107422 31.71679688 57.11328125 C56.55922637 102.15872887 82.59082196 146.46822616 110 190 C110.8657666 191.37696045 110.8657666 191.37696045 111.74902344 192.78173828 C113.3937478 195.39706581 115.04008159 198.01136877 116.6875 200.625 C117.16872314 201.3888501 117.64994629 202.1527002 118.14575195 202.93969727 C120.16081031 206.12885576 122.19181149 209.29169712 124.33203125 212.3984375 C126 215 126 215 126 217 C114.65450694 216.49414436 103.54349752 215.41006245 92.3125 213.75 C89.11375957 213.28701448 85.91434335 212.82880005 82.71484375 212.37109375 C81.49725372 212.19600533 81.49725372 212.19600533 80.25506592 212.01737976 C74.92774366 211.25682176 69.59580374 210.55985822 64.25390625 209.91015625 C44.44624073 207.48317207 24.79140924 204.38992275 5.125 201 C3.90431824 200.7905777 2.68363647 200.5811554 1.42596436 200.36538696 C-13.87493158 197.73087839 -29.09137233 194.823346 -44.27362061 191.57514954 C-49.00841971 190.57630927 -53.75406416 189.63175877 -58.5 188.6875 C-59.35788116 188.5167395 -60.21576233 188.345979 -61.09963989 188.17004395 C-63.06626335 187.77920695 -65.03310395 187.38946282 -67 187 C-68.54137427 183.04090315 -67.41051346 180.32791239 -66.11328125 176.39453125 C-65.88925125 175.70736526 -65.66522125 175.02019928 -65.43440247 174.31221008 C-64.63410392 171.87098044 -63.81706779 169.43566611 -63 167 C-62.35295189 165.04619394 -61.7063277 163.09224746 -61.06005859 161.13818359 C-58.79439452 154.31273704 -56.49556423 147.49871173 -54.1875 140.6875 C-53.77159607 139.4598996 -53.35569214 138.23229919 -52.92718506 136.96749878 C-45.06480083 113.80555783 -36.78147103 90.82872506 -28 68 C-27.56844604 66.8777301 -27.56844604 66.8777301 -27.12817383 65.73278809 C-20.71100208 49.0707385 -14.0280522 32.51815287 -7.25 16 C-6.78651154 14.86847 -6.78651154 14.86847 -6.31365967 13.71408081 C-5.44645207 11.59981507 -4.57554187 9.48712069 -3.703125 7.375 C-3.20458008 6.16585938 -2.70603516 4.95671875 -2.19238281 3.7109375 C-1 1 -1 1 0 0 Z " fill="#FEFEFE" transform="translate(768,1186)"/>
<path d="M0 0 C-5.19108377 8.31995617 -11.26776288 15.98099619 -17.25341797 23.73291016 C-19.51035645 26.66245037 -21.75133642 29.60398812 -23.99243164 32.5456543 C-29.8177876 40.18822165 -35.71393579 47.77085723 -41.67041016 55.31152344 C-42.99813855 56.9976361 -44.318487 58.68926782 -45.63671875 60.3828125 C-52.4165153 69.08123183 -59.39653617 77.60327942 -66.4296875 86.09765625 C-68.5087402 88.61630964 -70.56668129 91.15188999 -72.625 93.6875 C-76.52331695 98.46257597 -80.53097888 103.1376081 -84.55688477 107.80493164 C-87.62063901 111.36442953 -90.61608178 114.96701387 -93.5625 118.625 C-97.66184296 123.67664041 -102.01341752 128.45035051 -106.43359375 133.21875 C-109.10783428 136.1168615 -111.71329182 139.06432309 -114.296875 142.04296875 C-117.49962159 145.72318902 -120.75410388 149.35785163 -124 153 C-129.97488151 148.16924473 -134.92535877 142.75346762 -140 137 C-141.70535036 135.12228651 -143.41370483 133.24729715 -145.125 131.375 C-151.61044638 124.24299838 -157.90417874 116.95794162 -164.16870117 109.63232422 C-167.43549791 105.81490967 -170.72186936 102.0153891 -174.02148438 98.22631836 C-179.03338306 92.46895116 -183.96239942 86.66438065 -188.765625 80.73046875 C-190.8082603 78.23431128 -192.88499073 75.77395108 -194.97949219 73.3215332 C-199.70131271 67.79264154 -204.27320421 62.17361866 -208.73828125 56.43554688 C-212.22110793 51.96673686 -215.78475345 47.57028009 -219.375 43.1875 C-224.4585877 36.96894018 -229.38653183 30.64674039 -234.23876953 24.24633789 C-236.86928657 20.77825329 -239.51715272 17.32883824 -242.2265625 13.921875 C-242.73622559 13.28072754 -243.24588867 12.63958008 -243.77099609 11.97900391 C-244.731256 10.77527103 -245.6949339 9.57425396 -246.66259766 8.37646484 C-248.62732657 5.91219079 -249.99358176 4.01925471 -251 1 C-239.61200305 0.94437965 -228.25020695 1.05848534 -216.86821556 1.42041397 C-192.79543425 2.1659749 -168.72354961 2.15745151 -144.64146805 2.12877274 C-141.14150202 2.12494976 -137.64153874 2.12291918 -134.14157104 2.12130737 C-106.94649912 2.10651929 -79.75379785 2.04783699 -52.5625 1.5625 C-51.44072357 1.5429425 -50.31894714 1.52338501 -49.16317749 1.50323486 C-37.40396165 1.28863896 -25.67323819 0.89619885 -13.93212891 0.20507812 C-9.27563516 -0.03777887 -4.66102302 -0.07641021 0 0 Z " fill="#FEFEFE" transform="translate(1330,1507)"/>
<path d="M0 0 C3.06671084 1.35875406 5.07279895 2.86146743 7.35546875 5.30859375 C8.28202271 6.29702271 8.28202271 6.29702271 9.22729492 7.30541992 C9.8741626 8.00900635 10.52103027 8.71259277 11.1875 9.4375 C12.19550659 10.52285034 12.19550659 10.52285034 13.22387695 11.63012695 C17.596187 16.37333786 21.74335762 21.24542285 25.76171875 26.29296875 C28.39397574 29.47648375 31.17691046 32.48626826 34 35.5 C38.40379743 40.20743637 42.56077125 45.03672495 46.59765625 50.06640625 C49.44960246 53.54902674 52.40809176 56.92791812 55.375 60.3125 C60.08794584 65.70302154 64.59363697 71.2089873 68.97607422 76.87036133 C72.05418048 80.8345552 75.23501462 84.68863638 78.5 88.5 C83.67356368 94.55273137 88.61048314 100.76775033 93.49169922 107.05761719 C95.10680825 109.13754718 96.72691715 111.21351708 98.34765625 113.2890625 C101.30501599 117.07860472 104.25260652 120.87560806 107.19628906 124.67578125 C109.02939486 127.03787751 110.870121 129.39391014 112.7109375 131.75 C113.8909808 133.27055728 115.07068113 134.79138079 116.25 136.3125 C116.79897949 137.01157471 117.34795898 137.71064941 117.91357422 138.4309082 C118.42162598 139.08921631 118.92967773 139.74752441 119.453125 140.42578125 C119.89817383 140.99723877 120.34322266 141.56869629 120.80175781 142.1574707 C122.21902436 144.33679234 123.1013293 146.56675254 124 149 C120.0416846 149.0304054 116.08340041 149.04724185 112.125 149.0625 C111.05507812 149.07087891 109.98515625 149.07925781 108.8828125 149.08789062 C102.14460661 149.10703326 95.44184985 148.94820572 88.71157265 148.64244652 C72.45464643 147.91998524 56.21306322 147.8514288 39.94459963 147.8656745 C36.04097719 147.86826432 32.1373567 147.86584291 28.23373413 147.86428833 C21.69374154 147.86248676 15.15376037 147.86482066 8.61376953 147.86962891 C1.11211601 147.87508136 -6.38951035 147.87329354 -13.89116323 147.8678025 C-20.4057489 147.86322973 -26.92032652 147.86264059 -33.43491328 147.86524117 C-37.29390763 147.8667795 -41.15288931 147.8670662 -45.01188278 147.86370468 C-59.67018173 147.85262803 -74.30108939 147.85954442 -88.93734741 148.77638245 C-95.7020922 149.19041978 -102.47527614 149.10743439 -109.25 149.0625 C-110.60416494 149.05745443 -111.95833178 149.05289714 -113.3125 149.04882812 C-116.54171899 149.0372952 -119.77083144 149.02103166 -123 149 C-121.34204821 144.55702746 -119.0367052 141.21617056 -116.0625 137.5625 C-115.06099432 136.31136086 -114.05969791 135.06005419 -113.05859375 133.80859375 C-112.54796387 133.17421387 -112.03733398 132.53983398 -111.51123047 131.88623047 C-109.63963834 129.55021742 -107.79750773 127.19214509 -105.95678711 124.83178711 C-100.99857586 118.47745992 -95.93834584 112.21091119 -90.84082031 105.96801758 C-87.29910694 101.62285023 -83.81869514 97.23560035 -80.375 92.8125 C-75.92736615 87.10827659 -71.30638228 81.57386858 -66.609375 76.07421875 C-64.23730965 73.29266912 -61.92507288 70.46651339 -59.625 67.625 C-54.45601189 61.27873346 -49.07700806 55.12076198 -43.69824219 48.95263672 C-42.01427371 47.01641189 -40.3379238 45.07387206 -38.6640625 43.12890625 C-32.68825822 36.19071645 -26.62874263 29.354014 -20.4140625 22.62890625 C-17.85898278 19.84643271 -15.3759242 17.01084651 -12.90234375 14.15625 C-8.67847937 9.36862548 -4.32676456 4.69450042 0 0 Z " fill="#FEFEFE" transform="translate(1202,500)"/>
<path d="M0 0 C8.93713397 -0.40717822 17.51553535 0.69338596 26.33178711 1.97143555 C28.6647268 2.30920285 30.99908739 2.63505523 33.33398438 2.95898438 C41.37441686 4.09002679 49.35886923 5.39001413 57.33125305 6.92886353 C62.40699771 7.90528084 67.49304076 8.72250251 72.60449219 9.48583984 C99.54568545 13.56537342 126.52057998 18.09276469 153.11108398 24.05053711 C158.67424249 25.29494701 164.2482345 26.45367765 169.84375 27.54296875 C171.85829316 27.94024908 173.87266845 28.33837204 175.88702393 28.73660278 C177.84655122 29.11944187 179.80877105 29.48841518 181.77099609 29.85717773 C182.95773926 30.09251221 184.14448242 30.32784668 185.3671875 30.5703125 C186.96216064 30.87606201 186.96216064 30.87606201 188.58935547 31.18798828 C189.38486816 31.45595215 190.18038086 31.72391602 191 32 C192.10108346 35.30325039 191.94609382 35.9257468 190.91455078 39.09277344 C190.64832916 39.92371521 190.38210754 40.75465698 190.1078186 41.61077881 C189.65612808 42.97133392 189.65612808 42.97133392 189.1953125 44.359375 C188.73020767 45.79219818 188.73020767 45.79219818 188.25570679 47.25396729 C187.22260249 50.42284875 186.17481758 53.58661894 185.125 56.75 C184.76575439 57.84054687 184.40650879 58.93109375 184.03637695 60.0546875 C166.72009917 112.58902152 146.85365419 164.19334068 125 215 C122.16237155 211.63306308 119.98301464 208.34321846 118.00390625 204.4140625 C117.45210693 203.33036377 116.90030762 202.24666504 116.33178711 201.13012695 C115.74792236 199.97343506 115.16405762 198.81674316 114.5625 197.625 C109.54060138 187.77911909 104.31639453 178.08823843 98.82421875 168.49438477 C94.96294363 161.7389063 91.23828616 154.92045089 87.5625 148.0625 C82.70230378 139.02086917 77.64188375 130.11879491 72.43505859 121.27270508 C68.62823203 114.80381684 64.88638927 108.30227939 61.18505859 101.77246094 C53.44564615 88.11880361 45.4269663 74.65845659 37.22671509 61.27713013 C34.68255905 57.12370001 32.1570736 52.95933024 29.640625 48.7890625 C22.36476425 36.73949865 15.02791839 24.74102446 7.3762207 12.92431641 C4.65711983 8.70681826 2.11981115 4.55092324 0 0 Z " fill="#FEFEFE" transform="translate(1512,757)"/>
<path d="M0 0 C-2.99465353 5.67951531 -6.29916842 11.07124259 -9.8125 16.4375 C-23.46181858 37.34879069 -36.1508793 58.86236497 -48.84765625 80.359375 C-50.73610089 83.55571769 -52.63219818 86.74744544 -54.53125 89.9375 C-72.83060342 120.70812149 -90.22376464 151.97462409 -106.95849609 183.62011719 C-112.52574205 194.14331189 -118.21083736 204.59701228 -124 215 C-126.24855579 212.94416138 -127.55204661 211.19507193 -128.70727539 208.38208008 C-129.0100238 207.65442444 -129.31277222 206.9267688 -129.62469482 206.17706299 C-130.10631073 204.98533478 -130.10631073 204.98533478 -130.59765625 203.76953125 C-130.94395081 202.92807556 -131.29024536 202.08661987 -131.64703369 201.21966553 C-132.79461706 198.42089403 -133.92937935 195.61715568 -135.0625 192.8125 C-135.65349991 191.35866409 -135.65349991 191.35866409 -136.25643921 189.87545776 C-153.58996712 147.20580038 -169.07322776 103.85361499 -183.6875 60.1875 C-183.99240356 59.27832825 -184.29730713 58.36915649 -184.6114502 57.43243408 C-185.47764272 54.84546309 -186.33926676 52.25702002 -187.19921875 49.66796875 C-187.45380356 48.90815201 -187.70838837 48.14833527 -187.97068787 47.36549377 C-189.53951086 42.61832255 -190.83978682 37.86369329 -192 33 C-159.27268964 24.61697204 -126.07161779 18.91556193 -92.79734802 13.17956543 C-89.01349005 12.52648174 -85.23156007 11.86469711 -81.45263672 11.18359375 C-73.53006381 9.75764564 -65.61895335 8.46506479 -57.625 7.5 C-50.52176707 6.60781789 -43.44223267 5.64367863 -36.375 4.5 C-29.48598972 3.38853667 -22.59246466 2.32069925 -15.6875 1.3125 C-14.8094873 1.18101562 -13.93147461 1.04953125 -13.02685547 0.9140625 C-8.64246328 0.28078978 -4.44464293 -0.15226346 0 0 Z " fill="#FEFEFE" transform="translate(893,756)"/>
</svg>
